<?xml version="1.0" encoding="utf-8"?>
<!-- Generator: Adobe Illustrator 14.0.0, SVG Export Plug-In . SVG Version: 6.00 Build 43363)  -->
<!DOCTYPE svg PUBLIC "-//W3C//DTD SVG 1.1//EN" "http://www.w3.org/Graphics/SVG/1.1/DTD/svg11.dtd">
<svg version="1.1" id="Слой_1" xmlns="http://www.w3.org/2000/svg" xmlns:xlink="http://www.w3.org/1999/xlink" x="0px" y="0px"
	 width="96px" height="96px" viewBox="0 0 96 96" enable-background="new 0 0 96 96" xml:space="preserve">
<rect fill="none" width="96" height="96"/>
<linearGradient id="SVGID_1_" gradientUnits="userSpaceOnUse" x1="3089.8301" y1="-4728.7441" x2="3089.8301" y2="-4797.0981" gradientTransform="matrix(1 0 0 -1 -3041.7949 -4712.8242)">
	<stop  offset="0" style="stop-color:#9AE4E8"/>
	<stop  offset="1" style="stop-color:#60A8C0;stop-opacity:0.93"/>
</linearGradient>
<path fill="url(#SVGID_1_)" stroke="#0071AF" stroke-width="0.001" stroke-miterlimit="10" d="M88,47.997
	c0,29.633-10.352,39.998-39.964,39.998S8.069,77.63,8.069,47.997C8.07,18.363,18.426,8,48.037,8S88,18.363,88,47.997z"/>
<linearGradient id="SVGID_2_" gradientUnits="userSpaceOnUse" x1="3089.7637" y1="-4800.5762" x2="3089.7637" y2="-4721.3398" gradientTransform="matrix(1 0 0 -1 -3041.7949 -4712.8242)">
	<stop  offset="0" style="stop-color:#000000;stop-opacity:0.4"/>
	<stop  offset="1" style="stop-color:#FFFFFF"/>
</linearGradient>
<path opacity="0.4" fill="url(#SVGID_2_)" stroke="#0071AF" stroke-width="1.000000e-004" stroke-miterlimit="10" enable-background="new    " d="
	M47.965,8.008C18.355,8.008,8,18.371,8,48.003C8,77.639,18.354,88,47.965,88c29.611,0,39.971-10.363,39.971-39.997
	C87.936,18.371,77.576,8.008,47.965,8.008z M47.965,87.005c-29.133,0-38.966-9.845-38.966-39.006
	c0-29.157,9.833-38.996,38.966-38.996c29.129,0,38.967,9.84,38.967,38.997C86.932,77.16,77.092,87.005,47.965,87.005z"/>
<g>
	<path fill="#231F20" d="M79.199,46.054c-10.695-2.917-10.695-2.917-10.695-2.917s-1.223-7.916-9.271-10.92c0,0,0,0-1.201-4.913
		c-2.25,5.167-2.25,5.167-2.25,5.167s0,0-3.832-5.5c0.416,5.417,0.416,5.417,0.416,5.417S47.989,28.311,48,27.876
		c2.115,6.844-1.751,14.344-1.751,14.344s0,0-4.718-3.083c-5.6-3.302-19.833-8.667-19.833-8.667s3.01,6.185,8.521,9.308
		c-2.253,0.179-8.854-0.975-8.854-0.975s5.464,5.972,12.034,7.444c-3.045,0.112-10.034,1.806-10.034,1.806s7.702,3.862,13.102,3.528
		c-11.352,4.723-11.018,6.223,2.052,5.041C26.962,66.975,16.8,57.527,16.8,57.527s8.148,12.443,23.459,11.445
		c10.139-0.301,24.528-4.787,28.377-19.578"/>
	<line fill="none" x1="79.199" y1="46.054" x2="68.504" y2="43.137"/>
	<polygon fill="#F4EB1F" points="64.531,50.721 68.504,43.137 79.199,46.054 	"/>
	<polygon fill="#FFFFFF" points="63.949,39.441 63.121,40.911 59.781,37.97 	"/>
</g>
</svg>
