<?xml version="1.0" encoding="utf-8"?>
<!-- Generator: Adobe Illustrator 15.0.0, SVG Export Plug-In . SVG Version: 6.00 Build 0)  -->
<!DOCTYPE svg PUBLIC "-//W3C//DTD SVG 1.1//EN" "http://www.w3.org/Graphics/SVG/1.1/DTD/svg11.dtd">
<svg version="1.1" xmlns="http://www.w3.org/2000/svg" xmlns:xlink="http://www.w3.org/1999/xlink" x="0px" y="0px" width="30px"
	 height="30px" viewBox="0 0 30 30" enable-background="new 0 0 30 30" xml:space="preserve">
<g id="DO_NOT_EDIT_-_BOUNDING_BOX">
	<rect id="BOUNDING_BOX" fill="none" width="30" height="30"/>
</g>
<g id="PLACE_YOUR_GRAPHIC_HERE">
	<path opacity="0.3" d="M16,5c0,0.553,0.447,1,1,1h3v3c0,0.553,0.447,1,1,1s1-0.447,1-1V6h3c0.553,0,1-0.447,1-1s-0.447-1-1-1h-3V1
		c0-0.553-0.447-1-1-1s-1,0.447-1,1v3h-3C16.447,4,16,4.447,16,5z M13.291,21.643c0.521-0.209,0.852-0.572,0.979-1.078
		c0.029-0.119,0.054-0.219,0.07-0.301c-0.514-0.619-0.826-1.445-1.006-2.063c-0.497-0.398-0.652-1.119-0.758-1.604
		c-0.028-0.138-0.047-0.229-0.068-0.295c-0.192-0.617-0.269-1.058-0.239-1.39c0-0.285,0.063-0.554,0.188-0.785
		c-0.102-0.394-0.139-0.765-0.139-1.161C12.211,12.977,12.108,13,12,13c-2.205,0-4-1.795-4-4s1.795-4,4-4
		c1.533,0,2.852,0.877,3.523,2.146c0.076-0.008,0.15-0.02,0.238-0.02c0.086,0,0.178,0.005,0.277,0.016
		c0.031-0.018,0.064-0.029,0.094-0.043c0.033-0.013,0.074-0.027,0.111-0.041C15.404,6.748,14.8,5.945,14.8,5
		c0-1.213,0.987-2.2,2.2-2.2h0.014C15.641,1.684,13.898,1,12,1C7.582,1,4,4.678,4,9c0,4.096,2.979,10.982,5.383,14.943
		c0.479-0.604,1.078-0.926,1.175-0.975C11.875,22.193,13.232,21.664,13.291,21.643z M24.896,24.043
		c-1.322-0.773-2.635-1.281-2.635-1.281c-0.186-0.072-0.348-0.156-0.492-0.246c-0.809-0.556-1.221-1.543-1.262-1.691
		c-0.111-0.456-0.213-0.938-0.053-1.09c0.816-0.707,1.143-2.391,1.143-2.391c0.02-0.066,0.041-0.129,0.063-0.188
		c0.4,0.49,0.605-0.666,0.771-1.194c0.174-0.56,0.246-0.925,0.246-0.925c0.07-0.568-0.361-0.4-0.361-0.4l-0.033,0.037
		c0.064-0.791,0.291-1.273,0.291-1.986c0.004-0.777,0.131-1.215-0.188-1.996C22.008,11.005,21.529,11.2,21,11.2
		c-1.213,0-2.201-0.987-2.201-2.2V8.221c-1.877-0.572-2.172,0.198-2.818,0.123c-0.658-0.08-0.748,0.188-0.877,0.424
		c-0.129,0.234,0,0.424-0.358,0.438c-0.361,0.019-0.521,0.293-0.521,0.293c-1.072,1.72-0.676,2.235-0.711,3.335
		c-0.021,0.585,0.073,1.02,0.379,1.826l-0.033-0.045c0,0-0.42-0.197-0.389,0.373c0,0-0.06,0.179,0.18,0.941
		c0.143,0.438,0.252,1.659,0.66,1.272c0.014,0.045,0.032,0.094,0.047,0.14c0,0,0.322,1.684,1.139,2.391
		c0.166,0.154,0.061,0.635-0.053,1.09c-0.047,0.175-0.279,1.363-1.717,1.939c0,0-1.313,0.508-2.632,1.281
		c0,0-0.89,0.443-1.074,1.182L10,25.333c0.751,0.429,1.638,0.778,2.668,1.046c2.52,0.652,4.256,0.637,5.432,0.612
		c1.176,0.024,2.91,0.04,5.432-0.612c0.955-0.248,1.768-0.568,2.469-0.959l-0.037-0.195C25.779,24.486,24.896,24.043,24.896,24.043z
		"/>
	<path opacity="0.15" d="M18.788,29c-0.256,0-0.492-0.005-0.709-0.009C17.902,28.995,17.667,29,17.411,29
		c-1.062,0-2.734-0.068-4.994-0.653c-1.104-0.286-2.084-0.672-2.913-1.146c-0.371-0.211-0.566-0.635-0.487-1.054l0.021-0.108
		c0.012-0.049,0.025-0.097,0.04-0.144c-0.227-0.072-0.424-0.225-0.55-0.434C6.391,21.939,3,14.627,3,10c0-4.962,4.038-9,9-9
		c2.035,0,4.039,0.719,5.645,2.024C17.937,3.261,18.067,3.639,17.993,4H19V2c0-1.103,0.897-2,2-2s2,0.897,2,2v2h2
		c1.103,0,2,0.897,2,2s-0.897,2-2,2h-2v2c0,0.283-0.06,0.553-0.166,0.797c0.215,0.107,0.387,0.29,0.479,0.517
		c0.328,0.804,0.302,1.375,0.276,1.926c-0.007,0.14-0.014,0.288-0.015,0.452c0,0.49-0.086,0.896-0.162,1.254
		c-0.007,0.034-0.014,0.068-0.021,0.103c0.171,0.207,0.348,0.561,0.279,1.111c-0.011,0.071-0.09,0.477-0.283,1.099
		c-0.026,0.082-0.052,0.177-0.079,0.278c-0.144,0.529-0.344,1.265-0.872,1.582c-0.158,0.55-0.482,1.441-1.041,2.085
		c0.017,0.087,0.043,0.21,0.085,0.383c0.035,0.089,0.352,0.758,0.856,1.104c0.058,0.034,0.165,0.091,0.289,0.139
		c0.055,0.021,1.4,0.545,2.776,1.35c0.076,0.036,1.246,0.652,1.532,1.804l0.049,0.25c0.08,0.423-0.119,0.851-0.496,1.061
		c-0.794,0.442-1.679,0.786-2.704,1.053C21.521,28.932,19.849,29,18.788,29z M12,7c-1.654,0-3,1.346-3,3s1.346,3,3,3l0.226-0.029
		c0.03-0.003,0.061-0.004,0.091-0.004c0.055,0,0.11,0.004,0.164,0.014c-0.04-0.845,0.05-1.654,0.895-3.011
		c0.135-0.234,0.428-0.521,0.843-0.668c0.003-0.005,0.006-0.01,0.009-0.016c0.078-0.146,0.208-0.393,0.454-0.599
		c-0.015-0.023-0.029-0.047-0.042-0.072C14.113,7.619,13.101,7,12,7z"/>
	<path opacity="0.15" d="M16,6c0,0.553,0.447,1,1,1h3v3c0,0.553,0.447,1,1,1s1-0.447,1-1V7h3c0.553,0,1-0.447,1-1s-0.447-1-1-1h-3V2
		c0-0.553-0.447-1-1-1s-1,0.447-1,1v3h-3C16.447,5,16,5.447,16,6z M13.291,22.643c0.521-0.209,0.852-0.572,0.979-1.078
		c0.029-0.119,0.054-0.219,0.07-0.301c-0.514-0.619-0.826-1.445-1.006-2.063c-0.497-0.398-0.652-1.119-0.758-1.604
		c-0.028-0.138-0.047-0.229-0.068-0.295c-0.192-0.617-0.269-1.058-0.239-1.39c0-0.285,0.063-0.554,0.188-0.785
		c-0.102-0.394-0.139-0.765-0.139-1.161C12.211,13.977,12.108,14,12,14c-2.205,0-4-1.795-4-4s1.795-4,4-4
		c1.533,0,2.852,0.877,3.523,2.146c0.076-0.008,0.15-0.02,0.238-0.02c0.086,0,0.178,0.005,0.277,0.016
		c0.031-0.018,0.064-0.029,0.094-0.043c0.033-0.013,0.074-0.027,0.111-0.041C15.404,7.748,14.8,6.945,14.8,6
		c0-1.213,0.987-2.2,2.2-2.2h0.014C15.641,2.684,13.898,2,12,2c-4.418,0-8,3.678-8,8c0,4.096,2.979,10.982,5.383,14.943
		c0.479-0.604,1.078-0.926,1.175-0.975C11.875,23.193,13.232,22.664,13.291,22.643z M24.896,25.043
		c-1.322-0.773-2.635-1.281-2.635-1.281c-0.186-0.072-0.348-0.156-0.492-0.246c-0.809-0.556-1.221-1.543-1.262-1.691
		c-0.111-0.456-0.213-0.938-0.053-1.09c0.816-0.707,1.143-2.391,1.143-2.391c0.02-0.066,0.041-0.129,0.063-0.188
		c0.4,0.49,0.605-0.666,0.771-1.194c0.174-0.56,0.246-0.925,0.246-0.925c0.07-0.568-0.361-0.4-0.361-0.4l-0.033,0.037
		c0.064-0.791,0.291-1.273,0.291-1.986c0.004-0.777,0.131-1.215-0.188-1.996C22.008,12.005,21.529,12.2,21,12.2
		c-1.213,0-2.201-0.987-2.201-2.2V9.221c-1.877-0.572-2.172,0.198-2.818,0.123c-0.658-0.08-0.748,0.188-0.877,0.424
		c-0.129,0.234,0,0.424-0.358,0.438c-0.361,0.019-0.521,0.293-0.521,0.293c-1.072,1.72-0.676,2.235-0.711,3.335
		c-0.021,0.585,0.073,1.02,0.379,1.826l-0.033-0.045c0,0-0.42-0.197-0.389,0.373c0,0-0.06,0.179,0.18,0.941
		c0.143,0.438,0.252,1.659,0.66,1.272c0.014,0.045,0.032,0.094,0.047,0.14c0,0,0.322,1.684,1.139,2.391
		c0.166,0.154,0.061,0.635-0.053,1.09c-0.047,0.175-0.279,1.363-1.717,1.939c0,0-1.313,0.508-2.632,1.281
		c0,0-0.89,0.443-1.074,1.182L10,26.333c0.751,0.429,1.638,0.778,2.668,1.046c2.52,0.652,4.256,0.637,5.432,0.612
		c1.176,0.024,2.91,0.04,5.432-0.612c0.955-0.248,1.768-0.568,2.469-0.959l-0.037-0.195C25.779,25.486,24.896,25.043,24.896,25.043z
		"/>
	<path fill="#FFFFFF" d="M16,6c0,0.553,0.447,1,1,1h3v3c0,0.553,0.447,1,1,1s1-0.447,1-1V7h3c0.553,0,1-0.447,1-1s-0.447-1-1-1h-3V2
		c0-0.553-0.447-1-1-1s-1,0.447-1,1v3h-3C16.447,5,16,5.447,16,6z M13.291,22.643c0.521-0.209,0.852-0.572,0.979-1.078
		c0.029-0.119,0.054-0.219,0.07-0.301c-0.514-0.619-0.826-1.445-1.006-2.063c-0.497-0.398-0.652-1.119-0.758-1.604
		c-0.028-0.138-0.047-0.229-0.068-0.295c-0.192-0.617-0.269-1.058-0.239-1.39c0-0.285,0.063-0.554,0.188-0.785
		c-0.102-0.394-0.139-0.765-0.139-1.161C12.211,13.977,12.108,14,12,14c-2.205,0-4-1.795-4-4s1.795-4,4-4
		c1.533,0,2.852,0.877,3.523,2.146c0.076-0.008,0.15-0.02,0.238-0.02c0.086,0,0.178,0.005,0.277,0.016
		c0.031-0.018,0.064-0.029,0.094-0.043c0.033-0.013,0.074-0.027,0.111-0.041C15.404,7.748,14.8,6.945,14.8,6
		c0-1.213,0.987-2.2,2.2-2.2h0.014C15.641,2.684,13.898,2,12,2c-4.418,0-8,3.678-8,8c0,4.096,2.979,10.982,5.383,14.943
		c0.479-0.604,1.078-0.926,1.175-0.975C11.875,23.193,13.232,22.664,13.291,22.643z M24.896,25.043
		c-1.322-0.773-2.635-1.281-2.635-1.281c-0.186-0.072-0.348-0.156-0.492-0.246c-0.809-0.556-1.221-1.543-1.262-1.691
		c-0.111-0.456-0.213-0.938-0.053-1.09c0.816-0.707,1.143-2.391,1.143-2.391c0.02-0.066,0.041-0.129,0.063-0.188
		c0.4,0.49,0.605-0.666,0.771-1.194c0.174-0.56,0.246-0.925,0.246-0.925c0.07-0.568-0.361-0.4-0.361-0.4l-0.033,0.037
		c0.064-0.791,0.291-1.273,0.291-1.986c0.004-0.777,0.131-1.215-0.188-1.996C22.008,12.005,21.529,12.2,21,12.2
		c-1.213,0-2.201-0.987-2.201-2.2V9.221c-1.877-0.572-2.172,0.198-2.818,0.123c-0.658-0.08-0.748,0.188-0.877,0.424
		c-0.129,0.234,0,0.424-0.358,0.438c-0.361,0.019-0.521,0.293-0.521,0.293c-1.072,1.72-0.676,2.235-0.711,3.335
		c-0.021,0.585,0.073,1.02,0.379,1.826l-0.033-0.045c0,0-0.42-0.197-0.389,0.373c0,0-0.06,0.179,0.18,0.941
		c0.143,0.438,0.252,1.659,0.66,1.272c0.014,0.045,0.032,0.094,0.047,0.14c0,0,0.322,1.684,1.139,2.391
		c0.166,0.154,0.061,0.635-0.053,1.09c-0.047,0.175-0.279,1.363-1.717,1.939c0,0-1.313,0.508-2.632,1.281
		c0,0-0.89,0.443-1.074,1.182L10,26.333c0.751,0.429,1.638,0.778,2.668,1.046c2.52,0.652,4.256,0.637,5.432,0.612
		c1.176,0.024,2.91,0.04,5.432-0.612c0.955-0.248,1.768-0.568,2.469-0.959l-0.037-0.195C25.779,25.486,24.896,25.043,24.896,25.043z
		"/>
</g>
</svg>
