<?xml version="1.0" encoding="utf-8"?>
<!-- Generator: Adobe Illustrator 15.0.0, SVG Export Plug-In . SVG Version: 6.00 Build 0)  -->
<!DOCTYPE svg PUBLIC "-//W3C//DTD SVG 1.1//EN" "http://www.w3.org/Graphics/SVG/1.1/DTD/svg11.dtd">
<svg version="1.1" xmlns="http://www.w3.org/2000/svg" xmlns:xlink="http://www.w3.org/1999/xlink" x="0px" y="0px" width="30px"
	 height="30px" viewBox="0 0 30 30" enable-background="new 0 0 30 30" xml:space="preserve">
<g id="DO_NOT_EDIT_-_BOUNDING_BOX">
	<rect id="BOUNDING_BOX" fill="none" width="30" height="30"/>
</g>
<g id="PLACE_YOUR_GRAPHIC_HERE">
	<g>
		<path opacity="0.3" d="M26.735,25.381c-0.27-1.084-1.572-1.738-1.572-1.738c-1.948-1.139-3.883-1.891-3.883-1.891
			c-0.271-0.104-0.509-0.227-0.725-0.363c-1.189-0.816-1.798-2.27-1.856-2.492c-0.167-0.67-0.315-1.379-0.078-1.605
			c1.203-1.043,1.681-3.523,1.681-3.523c0.032-0.096,0.061-0.188,0.096-0.273c0.59,0.723,0.892-0.98,1.137-1.762
			c0.255-0.822,0.362-1.361,0.362-1.361c0.104-0.838-0.532-0.59-0.532-0.59l-0.049,0.055c0.092-1.166,0.429-1.877,0.429-2.928
			c0.007-1.623,0.406-2.213-1.249-4.699c-0.513-0.77-1.221-0.896-4.155-1.842c-2.926-0.947-3.343,0.252-4.315,0.137
			c-0.971-0.117-1.104,0.279-1.293,0.629c-0.189,0.344,0,0.621-0.529,0.645C9.67,1.803,9.434,2.209,9.434,2.209
			c-1.58,2.535-0.994,3.295-1.048,4.916C8.357,7.984,8.495,8.627,8.944,9.816L8.896,9.75c0,0-0.619-0.291-0.573,0.549
			c0,0-0.086,0.262,0.265,1.389c0.211,0.646,0.372,2.445,0.975,1.875c0.019,0.066,0.048,0.139,0.069,0.205
			c0,0,0.474,2.48,1.677,3.523c0.244,0.227,0.089,0.936-0.078,1.605c-0.069,0.256-0.411,2.01-2.53,2.855
			c0,0-1.934,0.752-3.878,1.891c0,0-1.31,0.654-1.582,1.738l-0.028,0.162c1.106,0.633,2.412,1.148,3.932,1.543
			c3.713,0.961,6.271,0.938,8.005,0.9c1.732,0.037,4.288,0.061,8.003-0.9c1.407-0.365,2.606-0.838,3.64-1.414L26.735,25.381z"/>
		<path opacity="0.15" d="M16.177,29.999c-0.379,0-0.729-0.006-1.051-0.013c-0.279,0.007-0.629,0.013-1.009,0.013
			c-1.534,0-3.951-0.098-7.225-0.945c-1.586-0.411-2.991-0.964-4.178-1.643c-0.366-0.209-0.561-0.625-0.488-1.04l0.028-0.162
			c0.389-1.559,1.944-2.373,2.12-2.461c1.932-1.134,3.88-1.896,3.962-1.928c1.014-0.405,1.659-1.119,1.91-2.119
			c0.103-0.411,0.162-0.694,0.181-0.864c-0.921-0.937-1.422-2.45-1.644-3.292c-0.66-0.342-0.867-1.298-1.026-2.034
			c-0.043-0.199-0.081-0.383-0.123-0.513C7.339,12.044,7.29,11.542,7.32,11.24c-0.004-0.44,0.111-0.802,0.343-1.077
			c-0.229-0.769-0.3-1.356-0.277-2.071c0.011-0.343-0.01-0.642-0.03-0.93C7.281,6.048,7.204,4.896,8.585,2.68
			c0.182-0.313,0.595-0.7,1.183-0.846C9.792,1.775,9.821,1.714,9.855,1.65c0.202-0.386,0.612-1.167,1.849-1.167
			c0.131,0,0.277,0.008,0.439,0.028c0,0,0.001,0,0.001,0c0.082,0,0.233-0.061,0.394-0.125C12.947,0.224,13.506,0,14.368,0
			c0.67,0,1.417,0.136,2.28,0.416l1.089,0.347c2.149,0.681,2.954,0.936,3.591,1.892c1.479,2.223,1.512,3.176,1.441,4.546
			c-0.011,0.218-0.023,0.451-0.024,0.712c0,0.673-0.116,1.219-0.228,1.747c-0.029,0.136-0.058,0.27-0.084,0.405
			c0.044,0.038,0.085,0.078,0.123,0.122c0.288,0.326,0.4,0.766,0.333,1.308c-0.017,0.097-0.132,0.673-0.399,1.535
			c-0.039,0.125-0.079,0.272-0.121,0.428c-0.226,0.83-0.497,1.83-1.229,2.126c-0.219,0.815-0.719,2.303-1.636,3.25
			c0.015,0.143,0.059,0.391,0.167,0.822c0.055,0.166,0.567,1.303,1.451,1.91c0.145,0.09,0.323,0.18,0.516,0.253
			c0.088,0.034,2.037,0.797,4.031,1.962c0.119,0.058,1.668,0.873,2.038,2.36l0.066,0.348c0.08,0.423-0.12,0.849-0.495,1.058
			c-1.135,0.633-2.402,1.127-3.876,1.509C20.125,29.901,17.709,29.999,16.177,29.999z"/>
		<path opacity="0.15" d="M26.735,26.381c-0.27-1.084-1.572-1.738-1.572-1.738c-1.948-1.139-3.883-1.891-3.883-1.891
			c-0.271-0.104-0.509-0.227-0.725-0.363c-1.189-0.816-1.798-2.27-1.856-2.492c-0.167-0.67-0.315-1.379-0.078-1.605
			c1.203-1.043,1.681-3.523,1.681-3.523c0.032-0.096,0.061-0.188,0.096-0.273c0.59,0.723,0.892-0.98,1.137-1.762
			c0.255-0.822,0.362-1.361,0.362-1.361c0.104-0.838-0.532-0.59-0.532-0.59l-0.049,0.055c0.092-1.166,0.429-1.877,0.429-2.928
			c0.007-1.623,0.406-2.213-1.249-4.699c-0.513-0.77-1.221-0.896-4.155-1.842c-2.926-0.947-3.343,0.252-4.315,0.137
			c-0.971-0.117-1.104,0.279-1.293,0.629c-0.189,0.344,0,0.621-0.529,0.645C9.67,2.803,9.434,3.209,9.434,3.209
			c-1.58,2.535-0.994,3.295-1.048,4.916c-0.028,0.859,0.109,1.502,0.559,2.691L8.896,10.75c0,0-0.619-0.291-0.573,0.549
			c0,0-0.086,0.262,0.265,1.389c0.211,0.646,0.372,2.445,0.975,1.875c0.019,0.066,0.048,0.139,0.069,0.205
			c0,0,0.474,2.48,1.677,3.523c0.244,0.227,0.089,0.936-0.078,1.605c-0.069,0.256-0.411,2.01-2.53,2.855
			c0,0-1.934,0.752-3.878,1.891c0,0-1.31,0.654-1.582,1.738l-0.028,0.162c1.106,0.633,2.412,1.148,3.932,1.543
			c3.713,0.961,6.271,0.938,8.005,0.9c1.732,0.037,4.288,0.061,8.003-0.9c1.407-0.365,2.606-0.838,3.64-1.414L26.735,26.381z"/>
		<path fill="#FFFFFF" d="M26.735,26.381c-0.27-1.084-1.572-1.738-1.572-1.738c-1.948-1.139-3.883-1.891-3.883-1.891
			c-0.271-0.104-0.509-0.227-0.725-0.363c-1.189-0.816-1.798-2.27-1.856-2.492c-0.167-0.67-0.315-1.379-0.078-1.605
			c1.203-1.043,1.681-3.523,1.681-3.523c0.032-0.096,0.061-0.188,0.096-0.273c0.59,0.723,0.892-0.98,1.137-1.762
			c0.255-0.822,0.362-1.361,0.362-1.361c0.104-0.838-0.532-0.59-0.532-0.59l-0.049,0.055c0.092-1.166,0.429-1.877,0.429-2.928
			c0.007-1.623,0.406-2.213-1.249-4.699c-0.513-0.77-1.221-0.896-4.155-1.842c-2.926-0.947-3.343,0.252-4.315,0.137
			c-0.971-0.117-1.104,0.279-1.293,0.629c-0.189,0.344,0,0.621-0.529,0.645C9.67,2.803,9.434,3.209,9.434,3.209
			c-1.58,2.535-0.994,3.295-1.048,4.916c-0.028,0.859,0.109,1.502,0.559,2.691L8.896,10.75c0,0-0.619-0.291-0.573,0.549
			c0,0-0.086,0.262,0.265,1.389c0.211,0.646,0.372,2.445,0.975,1.875c0.019,0.066,0.048,0.139,0.069,0.205
			c0,0,0.474,2.48,1.677,3.523c0.244,0.227,0.089,0.936-0.078,1.605c-0.069,0.256-0.411,2.01-2.53,2.855
			c0,0-1.934,0.752-3.878,1.891c0,0-1.31,0.654-1.582,1.738l-0.028,0.162c1.106,0.633,2.412,1.148,3.932,1.543
			c3.713,0.961,6.271,0.938,8.005,0.9c1.732,0.037,4.288,0.061,8.003-0.9c1.407-0.365,2.606-0.838,3.64-1.414L26.735,26.381z"/>
		<rect fill="none" width="30" height="30"/>
	</g>
</g>
</svg>
