<?xml version="1.0" encoding="UTF-8" standalone="no"?>
<!-- Generator: Adobe Illustrator 15.0.0, SVG Export Plug-In . SVG Version: 6.00 Build 0)  -->

<svg
   xmlns:dc="http://purl.org/dc/elements/1.1/"
   xmlns:cc="http://creativecommons.org/ns#"
   xmlns:rdf="http://www.w3.org/1999/02/22-rdf-syntax-ns#"
   xmlns:svg="http://www.w3.org/2000/svg"
   xmlns="http://www.w3.org/2000/svg"
   xmlns:sodipodi="http://sodipodi.sourceforge.net/DTD/sodipodi-0.dtd"
   xmlns:inkscape="http://www.inkscape.org/namespaces/inkscape"
   version="1.1"
   x="0px"
   y="0px"
   width="30px"
   height="30px"
   viewBox="0 0 30 30"
   enable-background="new 0 0 30 30"
   xml:space="preserve"
   id="svg2"
   inkscape:version="0.48.2 r9819"
   sodipodi:docname="create_message.svg"><sodipodi:namedview
   pagecolor="#ffffff"
   bordercolor="#666666"
   borderopacity="1"
   objecttolerance="10"
   gridtolerance="10"
   guidetolerance="10"
   inkscape:pageopacity="0"
   inkscape:pageshadow="2"
   inkscape:window-width="640"
   inkscape:window-height="480"
   id="namedview19"
   showgrid="false"
   inkscape:zoom="7.8666667"
   inkscape:cx="15"
   inkscape:cy="15"
   inkscape:window-x="0"
   inkscape:window-y="0"
   inkscape:window-maximized="0"
   inkscape:current-layer="svg2" /><metadata
   id="metadata23"><rdf:RDF><cc:Work
       rdf:about=""><dc:format>image/svg+xml</dc:format><dc:type
         rdf:resource="http://purl.org/dc/dcmitype/StillImage" /><dc:title></dc:title></cc:Work></rdf:RDF></metadata><defs
   id="defs21" />
<g
   id="DO_NOT_EDIT_-_BOUNDING_BOX">
	<rect
   height="30"
   width="30"
   fill="none"
   id="BOUNDING_BOX" />
</g>
<g
   id="PLACE_YOUR_GRAPHIC_HERE">
	<g
   id="g7">
		<path
   id="path9"
   d="M14.264,21.379l9.849-9.848c0.473-0.473,1.099-0.73,1.765-0.73s1.292,0.258,1.762,0.727L28,11.889V7.893    l-13,10l-13-10V23c0,0.551,0.45,1,1,1h9.953l0.36-1.084C13.486,22.402,13.886,21.758,14.264,21.379z M28,6H2l13,10L28,6z     M23.185,14.162l-8.07,8.063c-0.251,0.252-0.549,0.734-0.662,1.07l-1.419,4.264c-0.113,0.336,0.072,0.521,0.41,0.408l4.261-1.42    c0.338-0.111,0.818-0.41,1.072-0.662l8.068-8.063L23.185,14.162z M17.191,25.639l-1.941,0.68l-0.564-0.568l0.679-1.941    l0.381-0.385l1.828,1.832L17.191,25.639z M28.622,14.209l-1.83-1.832c-0.504-0.502-1.326-0.502-1.83,0l-0.91,0.914l3.662,3.66    l0.908-0.914C29.126,15.535,29.126,14.711,28.622,14.209z M27,24c0.55,0,1-0.449,1-1v-4.643L22.357,24H27z"
   opacity="0.3" />
		<rect
   id="rect11"
   height="30"
   width="30"
   fill="none" />
		<path
   id="path13"
   d="M30,16.123c0-0.615-0.238-1.191-0.671-1.621L29,14.173v-5.28c0-0.381,0.085-1.809-0.054-2.214    C28.809,6.272,28.428,6,28,6H2C1.572,6,1.191,6.272,1.053,6.678C0.916,7.083,1,8.512,1,8.893V24c0,1.103,0.897,2,2,2h9.831    l-0.745,2.239c-0.152,0.45-0.098,0.905,0.149,1.249C12.468,29.813,12.842,30,13.26,30h0c0.164,0,0.332-0.028,0.499-0.085    l4.257-1.418c0.481-0.159,1.097-0.538,1.467-0.905l2.041-2.039C21.707,25.828,22.019,26,22.357,26H27c1.103,0,2-0.897,2-2v-5.925    l0.328-0.33C29.762,17.313,30,16.737,30,16.123z"
   opacity="0.15" />
		<path
   id="path15"
   d="M14.264,22.379l9.849-9.848c0.473-0.473,1.099-0.73,1.765-0.73s1.292,0.258,1.762,0.727L28,12.889V8.893    l-13,10l-13-10V24c0,0.551,0.45,1,1,1h9.953l0.36-1.084C13.486,23.402,13.886,22.758,14.264,22.379z M28,7H2l13,10L28,7z     M23.185,15.162l-8.07,8.063c-0.251,0.252-0.549,0.734-0.662,1.07l-1.419,4.264c-0.113,0.336,0.072,0.521,0.41,0.408l4.261-1.42    c0.338-0.111,0.818-0.41,1.072-0.662l8.068-8.063L23.185,15.162z M17.191,26.639l-1.941,0.68l-0.564-0.568l0.679-1.941    l0.381-0.385l1.828,1.832L17.191,26.639z M28.622,15.209l-1.83-1.832c-0.504-0.502-1.326-0.502-1.83,0l-0.91,0.914l3.662,3.66    l0.908-0.914C29.126,16.535,29.126,15.711,28.622,15.209z M27,25c0.55,0,1-0.449,1-1v-4.643L22.357,25H27z"
   opacity="0.15" />
		<path
   id="path17"
   d="M14.264,22.379l9.849-9.848c0.473-0.473,1.099-0.73,1.765-0.73s1.292,0.258,1.762,0.727L28,12.889V8.893    l-13,10l-13-10V24c0,0.551,0.45,1,1,1h9.953l0.36-1.084C13.486,23.402,13.886,22.758,14.264,22.379z M28,7H2l13,10L28,7z     M23.185,15.162l-8.07,8.063c-0.251,0.252-0.549,0.734-0.662,1.07l-1.419,4.264c-0.113,0.336,0.072,0.521,0.41,0.408l4.261-1.42    c0.338-0.111,0.818-0.41,1.072-0.662l8.068-8.063L23.185,15.162z M17.191,26.639l-1.941,0.68l-0.564-0.568l0.679-1.941    l0.381-0.385l1.828,1.832L17.191,26.639z M28.622,15.209l-1.83-1.832c-0.504-0.502-1.326-0.502-1.83,0l-0.91,0.914l3.662,3.66    l0.908-0.914C29.126,16.535,29.126,15.711,28.622,15.209z M27,25c0.55,0,1-0.449,1-1v-4.643L22.357,25H27z"
   fill="#000000" />
	</g>
</g>
</svg>