<?xml version="1.0" encoding="utf-8"?>
<!-- Generator: Adobe Illustrator 15.0.0, SVG Export Plug-In . SVG Version: 6.00 Build 0)  -->
<!DOCTYPE svg PUBLIC "-//W3C//DTD SVG 1.1//EN" "http://www.w3.org/Graphics/SVG/1.1/DTD/svg11.dtd">
<svg version="1.1" id="Ebene_1" xmlns="http://www.w3.org/2000/svg" xmlns:xlink="http://www.w3.org/1999/xlink" x="0px" y="0px"
	 width="30px" height="30px" viewBox="0 0 30 30" enable-background="new 0 0 30 30" xml:space="preserve">
<g id="DO_NOT_EDIT_-_BOUNDING_BOX">
	<rect id="BOUNDING_BOX" fill="none" width="30" height="30"/>
</g>
<g id="PLACE_YOUR_GRAPHIC_HERE">
	<g>
		<path opacity="0.3" enable-background="new    " d="M5.438,17.613c-0.408,0.41-0.893,1.193-1.076,1.74l-2.309,6.928
			c-0.182,0.547,0.117,0.848,0.666,0.664l6.926-2.307c0.549-0.185,1.33-0.668,1.742-1.076l13.111-13.104l-5.947-5.947L5.438,17.613z
			 M8.811,23.162l-3.154,1.104L4.74,23.342l1.102-3.154l0.619-0.623l2.971,2.978L8.811,23.162z M27.387,4.588l-2.975-2.976
			c-0.818-0.816-2.154-0.816-2.973,0L19.96,3.095l5.949,5.947l1.478-1.482C28.205,6.744,28.205,5.405,27.387,4.588z"/>
		<path opacity="0.15" enable-background="new    " d="M2.422,28.999c-0.475,0-0.896-0.207-1.157-0.567
			c-0.166-0.229-0.407-0.727-0.162-1.466l2.309-6.929c0.233-0.695,0.799-1.609,1.316-2.129L17.844,4.804
			c0.195-0.195,1.029-1.032,1.409-1.414l1.479-1.483C21.316,1.321,22.098,1,22.926,1c0.829,0,1.608,0.321,2.192,0.904l2.976,2.977
			C28.68,5.465,29.001,6.245,29,7.076c0,0.831-0.322,1.609-0.907,2.193l-1.474,1.48c-0.188,0.188-1.227,1.23-1.414,1.418
			L12.094,25.27c-0.526,0.521-1.441,1.088-2.132,1.317l-6.927,2.308C2.827,28.964,2.62,28.999,2.422,28.999L2.422,28.999z"/>
		<path opacity="0.15" enable-background="new    " d="M5.438,18.613c-0.408,0.41-0.893,1.193-1.076,1.74l-2.309,6.928
			c-0.182,0.547,0.117,0.848,0.666,0.664l6.926-2.307c0.549-0.185,1.33-0.668,1.742-1.076l13.111-13.104l-5.947-5.947L5.438,18.613z
			 M8.811,24.162l-3.154,1.104L4.74,24.342l1.102-3.154l0.619-0.623l2.971,2.978L8.811,24.162z M27.387,5.588l-2.975-2.976
			c-0.818-0.816-2.154-0.816-2.973,0L19.96,4.095l5.949,5.947l1.478-1.482C28.205,7.744,28.205,6.405,27.387,5.588z"/>
		<path fill="#FFFFFF" d="M5.438,18.613c-0.408,0.41-0.893,1.193-1.076,1.74l-2.309,6.928c-0.182,0.547,0.117,0.848,0.666,0.664
			l6.926-2.307c0.549-0.185,1.33-0.668,1.742-1.076l13.111-13.104l-5.947-5.947L5.438,18.613z M8.811,24.162l-3.154,1.104
			L4.74,24.342l1.102-3.154l0.619-0.623l2.971,2.978L8.811,24.162z M27.387,5.588l-2.975-2.976c-0.818-0.816-2.154-0.816-2.973,0
			L19.96,4.095l5.949,5.947l1.478-1.482C28.205,7.744,28.205,6.405,27.387,5.588z"/>
		<rect fill="none" width="30" height="30"/>
	</g>
</g>
</svg>
