<?xml version="1.0" encoding="UTF-8" standalone="no"?>
<!-- Generator: Adobe Illustrator 15.0.0, SVG Export Plug-In . SVG Version: 6.00 Build 0)  -->

<svg
   xmlns:dc="http://purl.org/dc/elements/1.1/"
   xmlns:cc="http://creativecommons.org/ns#"
   xmlns:rdf="http://www.w3.org/1999/02/22-rdf-syntax-ns#"
   xmlns:svg="http://www.w3.org/2000/svg"
   xmlns="http://www.w3.org/2000/svg"
   xmlns:sodipodi="http://sodipodi.sourceforge.net/DTD/sodipodi-0.dtd"
   xmlns:inkscape="http://www.inkscape.org/namespaces/inkscape"
   version="1.1"
   x="0px"
   y="0px"
   width="30px"
   height="30px"
   viewBox="0 0 30 30"
   enable-background="new 0 0 30 30"
   xml:space="preserve"
   id="svg2"
   inkscape:version="0.48.2 r9819"
   sodipodi:docname="favourite.svg"><sodipodi:namedview
   pagecolor="#ffffff"
   bordercolor="#666666"
   borderopacity="1"
   objecttolerance="10"
   gridtolerance="10"
   guidetolerance="10"
   inkscape:pageopacity="0"
   inkscape:pageshadow="2"
   inkscape:window-width="640"
   inkscape:window-height="480"
   id="namedview15"
   showgrid="false"
   inkscape:zoom="7.8666667"
   inkscape:cx="15"
   inkscape:cy="15"
   inkscape:window-x="0"
   inkscape:window-y="0"
   inkscape:window-maximized="0"
   inkscape:current-layer="svg2" /><metadata
   id="metadata19"><rdf:RDF><cc:Work
       rdf:about=""><dc:format>image/svg+xml</dc:format><dc:type
         rdf:resource="http://purl.org/dc/dcmitype/StillImage" /><dc:title></dc:title></cc:Work></rdf:RDF></metadata><defs
   id="defs17" />
<g
   id="DO_NOT_EDIT_-_BOUNDING_BOX">
	<rect
   height="30"
   width="30"
   fill="none"
   id="BOUNDING_BOX" />
</g>
<g
   id="PLACE_YOUR_GRAPHIC_HERE">
	<path
   id="path7"
   d="M29,11.124c0-0.526-0.428-0.945-0.957-0.959h-0.01c-0.004,0-0.008-0.003-0.012-0.003   c-0.006,0-0.01,0.003-0.014,0.003l-9.227,0.003l-2.855-8.633c-0.13-0.38-0.486-0.66-0.917-0.66c-0.425,0-0.777,0.271-0.912,0.645   h-0.016l-2.859,8.648l-9.157-0.003l-0.004,0.011c-0.03,0-0.054-0.014-0.084-0.014C1.438,10.162,1,10.592,1,11.124   c0,0.381,0.231,0.706,0.563,0.861l-0.007,0.017l7.331,5.218l-2.826,8.522c-0.064,0.132-0.109,0.269-0.109,0.426   c0,0.528,0.438,0.957,0.978,0.957c0.212,0,0.398-0.08,0.559-0.195l0.009,0.006L15,21.583l7.369,5.259   c0.008,0.008,0.02,0.012,0.027,0.019l0.064,0.044h0.002c0.168,0.13,0.369,0.221,0.6,0.221c0.541,0,0.98-0.429,0.98-0.957   c0-0.086-0.029-0.16-0.049-0.239L24,25.926l-0.021-0.065c-0.01-0.03-0.016-0.063-0.029-0.093l-2.834-8.548l7.463-5.312   l-0.004-0.014C28.826,11.721,29,11.447,29,11.124z"
   opacity="0.3" />
	<path
   id="path9"
   d="M23.063,29.125c-0.421,0-0.833-0.144-1.191-0.414C21.834,28.688,15,23.812,15,23.812L8.077,28.75   c-0.049,0.035-0.102,0.065-0.155,0.091c-0.312,0.188-0.645,0.284-0.993,0.284c-1.09,0-1.978-0.878-1.978-1.957   c0-0.269,0.059-0.529,0.179-0.796l2.575-7.766l-6.729-4.79c-0.023-0.017-0.046-0.035-0.068-0.054C0.349,13.405,0,12.786,0,12.124   c0-1.082,0.887-1.962,1.977-1.962c0.021,0,8.522,0.006,8.522,0.006l2.633-7.962c0.028-0.086,0.067-0.166,0.116-0.238   c0.331-0.662,1.013-1.092,1.761-1.092c0.841,0,1.59,0.537,1.863,1.336l2.632,7.957c0,0,8.493-0.006,8.518-0.006   c0.045,0,0.091,0.003,0.137,0.01C29.215,10.258,30,11.094,30,12.124c0,0.569-0.25,1.094-0.693,1.468   c-0.044,0.048-0.094,0.092-0.148,0.131l-6.861,4.883c0,0,2.631,7.934,2.638,7.962c0.016,0.045,0.027,0.092,0.035,0.138   c0.032,0.113,0.073,0.27,0.073,0.462C25.043,28.247,24.154,29.125,23.063,29.125z"
   opacity="0.15" />
	<path
   id="path11"
   d="M29,12.124c0-0.526-0.428-0.945-0.957-0.959h-0.01c-0.004,0-0.008-0.003-0.012-0.003   c-0.006,0-0.01,0.003-0.014,0.003l-9.227,0.003l-2.855-8.633c-0.13-0.38-0.486-0.66-0.917-0.66c-0.425,0-0.777,0.271-0.912,0.645   h-0.016l-2.859,8.648l-9.157-0.003l-0.004,0.011c-0.03,0-0.054-0.014-0.084-0.014C1.438,11.162,1,11.592,1,12.124   c0,0.381,0.231,0.706,0.563,0.861l-0.007,0.017l7.331,5.218l-2.826,8.522c-0.064,0.132-0.109,0.269-0.109,0.426   c0,0.528,0.438,0.957,0.978,0.957c0.212,0,0.398-0.08,0.559-0.195l0.009,0.006L15,22.583l7.369,5.259   c0.008,0.008,0.02,0.012,0.027,0.019l0.064,0.044h0.002c0.168,0.13,0.369,0.221,0.6,0.221c0.541,0,0.98-0.429,0.98-0.957   c0-0.086-0.029-0.16-0.049-0.239L24,26.926l-0.021-0.065c-0.01-0.03-0.016-0.063-0.029-0.093l-2.834-8.548l7.463-5.312   l-0.004-0.014C28.826,12.721,29,12.447,29,12.124z"
   opacity="0.15" />
	<path
   id="path13"
   d="M29,12.124c0-0.526-0.428-0.945-0.957-0.959h-0.01c-0.004,0-0.008-0.003-0.012-0.003   c-0.006,0-0.01,0.003-0.014,0.003l-9.227,0.003l-2.855-8.633c-0.13-0.38-0.486-0.66-0.917-0.66c-0.425,0-0.777,0.271-0.912,0.645   h-0.016l-2.859,8.648l-9.157-0.003l-0.004,0.011c-0.03,0-0.054-0.014-0.084-0.014C1.438,11.162,1,11.592,1,12.124   c0,0.381,0.231,0.706,0.563,0.861l-0.007,0.017l7.331,5.218l-2.826,8.522c-0.064,0.132-0.109,0.269-0.109,0.426   c0,0.528,0.438,0.957,0.978,0.957c0.212,0,0.398-0.08,0.559-0.195l0.009,0.006L15,22.583l7.369,5.259   c0.008,0.008,0.02,0.012,0.027,0.019l0.064,0.044h0.002c0.168,0.13,0.369,0.221,0.6,0.221c0.541,0,0.98-0.429,0.98-0.957   c0-0.086-0.029-0.16-0.049-0.239L24,26.926l-0.021-0.065c-0.01-0.03-0.016-0.063-0.029-0.093l-2.834-8.548l7.463-5.312   l-0.004-0.014C28.826,12.721,29,12.447,29,12.124z"
   fill="#000000" />
</g>
</svg>