<?xml version="1.0" encoding="utf-8"?>
<!-- Generator: Adobe Illustrator 15.0.0, SVG Export Plug-In . SVG Version: 6.00 Build 0)  -->
<!DOCTYPE svg PUBLIC "-//W3C//DTD SVG 1.1//EN" "http://www.w3.org/Graphics/SVG/1.1/DTD/svg11.dtd">
<svg version="1.1" xmlns="http://www.w3.org/2000/svg" xmlns:xlink="http://www.w3.org/1999/xlink" x="0px" y="0px" width="30px"
	 height="30px" viewBox="0 0 30 30" enable-background="new 0 0 30 30" xml:space="preserve">
<g id="DO_NOT_EDIT_-_BOUNDING_BOX">
	<rect id="BOUNDING_BOX" fill="none" width="30" height="30"/>
</g>
<g id="PLACE_YOUR_GRAPHIC_HERE">
	<g>
		<path opacity="0.3" d="M25,12.999h-4v4h-3l5,9l5-9h-3V12.999z M28,1.999H2l13,10L28,1.999z M2,3.892v15.107c0,0.551,0.45,1,1,1
			h15.523l-1.397-2.514c-0.173-0.311-0.167-0.688,0.013-0.992c0.18-0.307,0.507-0.494,0.861-0.494h2v-3c0-0.553,0.447-1,1-1h4
			c0.553,0,1,0.447,1,1v3h2V3.892l-13,10L2,3.892z"/>
		<rect y="-0.001" fill="none" width="30" height="30.002"/>
		<path opacity="0.15" d="M29,4.892c0-0.381,0.085-1.809-0.054-2.214C28.809,2.271,28.428,1.999,28,1.999H2
			c-0.428,0-0.809,0.272-0.947,0.678C0.916,3.083,1,4.511,1,4.892v15.107c0,1.103,0.897,2,2,2h16.079l3.047,5.485
			c0.176,0.317,0.511,0.515,0.874,0.515s0.698-0.197,0.874-0.515l5-9C29.045,18.178,29,17.182,29,16.999V4.892z"/>
		<path opacity="0.15" d="M25,13.999h-4v4h-3l5,9l5-9h-3V13.999z M28,2.999H2l13,10L28,2.999z M2,4.892v15.107c0,0.551,0.45,1,1,1
			h15.523l-1.397-2.514c-0.173-0.311-0.167-0.688,0.013-0.992c0.18-0.307,0.507-0.494,0.861-0.494h2v-3c0-0.553,0.447-1,1-1h4
			c0.553,0,1,0.447,1,1v3h2V4.892l-13,10L2,4.892z"/>
		<path fill="#FFFFFF" d="M25,13.999h-4v4h-3l5,9l5-9h-3V13.999z M28,2.999H2l13,10L28,2.999z M2,4.892v15.107c0,0.551,0.45,1,1,1
			h15.523l-1.397-2.514c-0.173-0.311-0.167-0.688,0.013-0.992c0.18-0.307,0.507-0.494,0.861-0.494h2v-3c0-0.553,0.447-1,1-1h4
			c0.553,0,1,0.447,1,1v3h2V4.892l-13,10L2,4.892z"/>
	</g>
</g>
</svg>
