<?xml version="1.0" encoding="UTF-8" standalone="no"?>
<!-- Generator: Adobe Illustrator 15.0.0, SVG Export Plug-In . SVG Version: 6.00 Build 0)  -->

<svg
   xmlns:dc="http://purl.org/dc/elements/1.1/"
   xmlns:cc="http://creativecommons.org/ns#"
   xmlns:rdf="http://www.w3.org/1999/02/22-rdf-syntax-ns#"
   xmlns:svg="http://www.w3.org/2000/svg"
   xmlns="http://www.w3.org/2000/svg"
   xmlns:sodipodi="http://sodipodi.sourceforge.net/DTD/sodipodi-0.dtd"
   xmlns:inkscape="http://www.inkscape.org/namespaces/inkscape"
   version="1.1"
   x="0px"
   y="0px"
   width="30px"
   height="30px"
   viewBox="0 0 30 30"
   enable-background="new 0 0 30 30"
   xml:space="preserve"
   id="svg2"
   inkscape:version="0.48.2 r9819"
   sodipodi:docname="internet.svg"><sodipodi:namedview
   pagecolor="#ffffff"
   bordercolor="#666666"
   borderopacity="1"
   objecttolerance="10"
   gridtolerance="10"
   guidetolerance="10"
   inkscape:pageopacity="0"
   inkscape:pageshadow="2"
   inkscape:window-width="640"
   inkscape:window-height="480"
   id="namedview21"
   showgrid="false"
   inkscape:zoom="7.8666667"
   inkscape:cx="15"
   inkscape:cy="15"
   inkscape:window-x="0"
   inkscape:window-y="0"
   inkscape:window-maximized="0"
   inkscape:current-layer="svg2" /><metadata
   id="metadata25"><rdf:RDF><cc:Work
       rdf:about=""><dc:format>image/svg+xml</dc:format><dc:type
         rdf:resource="http://purl.org/dc/dcmitype/StillImage" /><dc:title></dc:title></cc:Work></rdf:RDF></metadata><defs
   id="defs23" />
<g
   id="DO_NOT_EDIT_-_BOUNDING_BOX">
	<rect
   height="30"
   width="30"
   fill="none"
   id="BOUNDING_BOX" />
</g>
<g
   id="PLACE_YOUR_GRAPHIC_HERE">
	<g
   id="g7">
		<path
   id="path9"
   d="M15,1C7.822,1,2,6.822,2,13.996C2,21.18,7.822,27,15,27c7.182,0,13-5.82,13-13.004C28,6.822,22.182,1,15,1z     M12.152,18.549c-0.252,0.506-0.811,0.695-0.76,1.621c0.08,1.486-1.115,1.367-1.391,2.381c-0.268,0.973-0.582,1.611-0.582,1.611    c-0.783-0.43-1.51-0.949-2.168-1.541c0.178-0.949-0.141-3.287-0.527-3.549c-1.111-0.758-1.072-0.539-1.168-3.506    c-0.053-1.646,2.736-1.178,3.338-0.523c0.576,0.627,0.48,1.539,2.156,2.24C11.525,17.48,12.406,18.043,12.152,18.549z     M11.248,5.66c-0.592,0.215-0.824,0.176-1.232-0.094C9.443,5.184,8.197,6.203,8.967,6.563c0.262,0.121,0.734,0.162,1.482,0.418    c1.193,0.412,1.539,1.119,0.848,1.305c-3.451,0.936-1.836,2.012-3.145,3.322c-0.672,0.672-0.627,0.941-1.102,1.102    c-0.582,0.193-0.676-0.654-1.225-0.678c-0.195-0.01-1.801,0.027-2.207,0.027c-0.057,0,0.012-0.432,0.012-0.432    C4.182,8.93,5.676,6.576,7.75,4.918c0,0,2.146-1.627,3.949-2.037c0.797-0.18,2.383-0.533,2.277,0.016    C13.861,3.49,11.844,5.449,11.248,5.66z M25.402,14.303c-0.721-0.131-1.191-2.002-1.965-1.416c-1.295,0.977,1.99,2.605,1.99,3.119    s-0.695,1.268-0.994,1.51c-0.451,0.363-0.371,1.754-0.371,1.754c0,0.98-0.658,2.152-0.996,2.602    c-0.34,0.449-1.809,2.125-2.666,1.09c-0.639-0.77-0.1-2.352-0.287-4.043c-0.066-0.607,0.049-2.334-2.551-2.648    c-2.313-0.277-2.113-1.961-1.963-2.814c0.209-1.174,0.338-1.871,1.33-2.111c0.557-0.137,2.227-0.352,3.391,0.111    c0.549,0.215,1.426,0.127,1.557-0.598c0.145-0.773-0.369-0.824-1.617-1.174c-1.121-0.316-2.182,0.631-3.092,0.629    c-0.408,0-0.389-0.344-0.379-0.826c0.004-0.48,1.764-1.719,1.949-1.859c0.357-0.273,1.4-0.162,1.422-0.162    c1.15,0.035,0.898-0.744,0.121-0.781c-1.363-0.066-1.262-0.781-1.277-0.996c-0.018-0.217,0.199-0.762,1.246-0.789    c0.34-0.01,1.672-0.064,2.033,0.039c0.09,0.068,0.586,0.5,0.586,0.5c1.951,1.797,3.283,4.254,3.645,7.018    c0.02,0.416,0.068,0.855,0.053,0.988C26.533,13.684,26.053,14.424,25.402,14.303z"
   opacity="0.3" />
		<g
   id="g11">
			<rect
   id="rect13"
   height="30"
   width="30"
   fill="none" />
		</g>
		<path
   id="path15"
   d="M15,29C7.28,29,1,22.718,1,14.996C1,7.279,7.28,1,15,1s14,6.279,14,13.996C29,22.718,22.72,29,15,29z"
   opacity="0.15" />
		<path
   id="path17"
   d="M15,2C7.822,2,2,7.822,2,14.996C2,22.18,7.822,28,15,28c7.182,0,13-5.82,13-13.004C28,7.822,22.182,2,15,2    z M12.152,19.549c-0.252,0.506-0.811,0.695-0.76,1.621c0.08,1.486-1.115,1.367-1.391,2.381c-0.268,0.973-0.582,1.611-0.582,1.611    c-0.783-0.43-1.51-0.949-2.168-1.541c0.178-0.949-0.141-3.287-0.527-3.549c-1.111-0.758-1.072-0.539-1.168-3.506    c-0.053-1.646,2.736-1.178,3.338-0.523c0.576,0.627,0.48,1.539,2.156,2.24C11.525,18.48,12.406,19.043,12.152,19.549z     M11.248,6.66c-0.592,0.215-0.824,0.176-1.232-0.094C9.443,6.184,8.197,7.203,8.967,7.563c0.262,0.121,0.734,0.162,1.482,0.418    c1.193,0.412,1.539,1.119,0.848,1.305c-3.451,0.936-1.836,2.012-3.145,3.322c-0.672,0.672-0.627,0.941-1.102,1.102    c-0.582,0.193-0.676-0.654-1.225-0.678c-0.195-0.01-1.801,0.027-2.207,0.027c-0.057,0,0.012-0.432,0.012-0.432    C4.182,9.93,5.676,7.576,7.75,5.918c0,0,2.146-1.627,3.949-2.037c0.797-0.18,2.383-0.533,2.277,0.016    C13.861,4.49,11.844,6.449,11.248,6.66z M25.402,15.303c-0.721-0.131-1.191-2.002-1.965-1.416c-1.295,0.977,1.99,2.605,1.99,3.119    s-0.695,1.268-0.994,1.51c-0.451,0.363-0.371,1.754-0.371,1.754c0,0.98-0.658,2.152-0.996,2.602    c-0.34,0.449-1.809,2.125-2.666,1.09c-0.639-0.77-0.1-2.352-0.287-4.043c-0.066-0.607,0.049-2.334-2.551-2.648    c-2.313-0.277-2.113-1.961-1.963-2.814c0.209-1.174,0.338-1.871,1.33-2.111c0.557-0.137,2.227-0.352,3.391,0.111    c0.549,0.215,1.426,0.127,1.557-0.598c0.145-0.773-0.369-0.824-1.617-1.174c-1.121-0.316-2.182,0.631-3.092,0.629    c-0.408,0-0.389-0.344-0.379-0.826c0.004-0.48,1.764-1.719,1.949-1.859c0.357-0.273,1.4-0.162,1.422-0.162    c1.15,0.035,0.898-0.744,0.121-0.781c-1.363-0.066-1.262-0.781-1.277-0.996c-0.018-0.217,0.199-0.762,1.246-0.789    c0.34-0.01,1.672-0.064,2.033,0.039c0.09,0.068,0.586,0.5,0.586,0.5c1.951,1.797,3.283,4.254,3.645,7.018    c0.02,0.416,0.068,0.855,0.053,0.988C26.533,14.684,26.053,15.424,25.402,15.303z"
   opacity="0.15" />
		<path
   id="path19"
   d="M15,2C7.822,2,2,7.822,2,14.996C2,22.18,7.822,28,15,28c7.182,0,13-5.82,13-13.004C28,7.822,22.182,2,15,2    z M12.152,19.549c-0.252,0.506-0.811,0.695-0.76,1.621c0.08,1.486-1.115,1.367-1.391,2.381c-0.268,0.973-0.582,1.611-0.582,1.611    c-0.783-0.43-1.51-0.949-2.168-1.541c0.178-0.949-0.141-3.287-0.527-3.549c-1.111-0.758-1.072-0.539-1.168-3.506    c-0.053-1.646,2.736-1.178,3.338-0.523c0.576,0.627,0.48,1.539,2.156,2.24C11.525,18.48,12.406,19.043,12.152,19.549z     M11.248,6.66c-0.592,0.215-0.824,0.176-1.232-0.094C9.443,6.184,8.197,7.203,8.967,7.563c0.262,0.121,0.734,0.162,1.482,0.418    c1.193,0.412,1.539,1.119,0.848,1.305c-3.451,0.936-1.836,2.012-3.145,3.322c-0.672,0.672-0.627,0.941-1.102,1.102    c-0.582,0.193-0.676-0.654-1.225-0.678c-0.195-0.01-1.801,0.027-2.207,0.027c-0.057,0,0.012-0.432,0.012-0.432    C4.182,9.93,5.676,7.576,7.75,5.918c0,0,2.146-1.627,3.949-2.037c0.797-0.18,2.383-0.533,2.277,0.016    C13.861,4.49,11.844,6.449,11.248,6.66z M25.402,15.303c-0.721-0.131-1.191-2.002-1.965-1.416c-1.295,0.977,1.99,2.605,1.99,3.119    s-0.695,1.268-0.994,1.51c-0.451,0.363-0.371,1.754-0.371,1.754c0,0.98-0.658,2.152-0.996,2.602    c-0.34,0.449-1.809,2.125-2.666,1.09c-0.639-0.77-0.1-2.352-0.287-4.043c-0.066-0.607,0.049-2.334-2.551-2.648    c-2.313-0.277-2.113-1.961-1.963-2.814c0.209-1.174,0.338-1.871,1.33-2.111c0.557-0.137,2.227-0.352,3.391,0.111    c0.549,0.215,1.426,0.127,1.557-0.598c0.145-0.773-0.369-0.824-1.617-1.174c-1.121-0.316-2.182,0.631-3.092,0.629    c-0.408,0-0.389-0.344-0.379-0.826c0.004-0.48,1.764-1.719,1.949-1.859c0.357-0.273,1.4-0.162,1.422-0.162    c1.15,0.035,0.898-0.744,0.121-0.781c-1.363-0.066-1.262-0.781-1.277-0.996c-0.018-0.217,0.199-0.762,1.246-0.789    c0.34-0.01,1.672-0.064,2.033,0.039c0.09,0.068,0.586,0.5,0.586,0.5c1.951,1.797,3.283,4.254,3.645,7.018    c0.02,0.416,0.068,0.855,0.053,0.988C26.533,14.684,26.053,15.424,25.402,15.303z"
   fill="#000000" />
	</g>
</g>
</svg>