<?xml version="1.0" encoding="UTF-8" standalone="no"?>
<!-- Generator: Adobe Illustrator 15.0.0, SVG Export Plug-In . SVG Version: 6.00 Build 0)  -->

<svg
   xmlns:dc="http://purl.org/dc/elements/1.1/"
   xmlns:cc="http://creativecommons.org/ns#"
   xmlns:rdf="http://www.w3.org/1999/02/22-rdf-syntax-ns#"
   xmlns:svg="http://www.w3.org/2000/svg"
   xmlns="http://www.w3.org/2000/svg"
   xmlns:sodipodi="http://sodipodi.sourceforge.net/DTD/sodipodi-0.dtd"
   xmlns:inkscape="http://www.inkscape.org/namespaces/inkscape"
   version="1.1"
   x="0px"
   y="0px"
   width="30px"
   height="30px"
   viewBox="0 0 30 30"
   enable-background="new 0 0 30 30"
   xml:space="preserve"
   id="svg2"
   inkscape:version="0.48.2 r9819"
   sodipodi:docname="location_mark.svg"><sodipodi:namedview
   pagecolor="#ffffff"
   bordercolor="#666666"
   borderopacity="1"
   objecttolerance="10"
   gridtolerance="10"
   guidetolerance="10"
   inkscape:pageopacity="0"
   inkscape:pageshadow="2"
   inkscape:window-width="640"
   inkscape:window-height="480"
   id="namedview15"
   showgrid="false"
   inkscape:zoom="7.8666667"
   inkscape:cx="15"
   inkscape:cy="15"
   inkscape:window-x="0"
   inkscape:window-y="0"
   inkscape:window-maximized="0"
   inkscape:current-layer="svg2" /><metadata
   id="metadata19"><rdf:RDF><cc:Work
       rdf:about=""><dc:format>image/svg+xml</dc:format><dc:type
         rdf:resource="http://purl.org/dc/dcmitype/StillImage" /><dc:title></dc:title></cc:Work></rdf:RDF></metadata><defs
   id="defs17" />
<g
   id="DO_NOT_EDIT_-_BOUNDING_BOX">
	<rect
   height="30"
   width="30"
   fill="none"
   id="BOUNDING_BOX" />
</g>
<g
   id="PLACE_YOUR_GRAPHIC_HERE">
	<path
   id="path7"
   d="M15,1c-4.418,0-8,3.677-8,8c0,6,6.4,18,8,18s8-12,8-18C23,4.677,19.418,1,15,1z M15,13c-2.205,0-4-1.795-4-4   s1.795-4,4-4s4,1.795,4,4S17.205,13,15,13z"
   opacity="0.3" />
	<path
   id="path9"
   d="M15,29c-2.691,0-9-13.318-9-19c0-4.962,4.038-9,9-9c4.963,0,9,4.038,9,9C24,15.682,17.691,29,15,29z M15,7   c-1.654,0-3,1.346-3,3s1.346,3,3,3s3-1.346,3-3S16.654,7,15,7z"
   opacity="0.15" />
	<path
   id="path11"
   d="M15,2c-4.418,0-8,3.677-8,8c0,6,6.4,18,8,18s8-12,8-18C23,5.677,19.418,2,15,2z M15,14   c-2.205,0-4-1.795-4-4s1.795-4,4-4s4,1.795,4,4S17.205,14,15,14z"
   opacity="0.15" />
	<path
   id="path13"
   d="M15,2c-4.418,0-8,3.677-8,8c0,6,6.4,18,8,18s8-12,8-18C23,5.677,19.418,2,15,2z M15,14   c-2.205,0-4-1.795-4-4s1.795-4,4-4s4,1.795,4,4S17.205,14,15,14z"
   fill="#000000" />
</g>
</svg>