<?xml version="1.0" encoding="UTF-8" standalone="no"?>
<!-- Generator: Adobe Illustrator 15.0.0, SVG Export Plug-In . SVG Version: 6.00 Build 0)  -->

<svg
   xmlns:dc="http://purl.org/dc/elements/1.1/"
   xmlns:cc="http://creativecommons.org/ns#"
   xmlns:rdf="http://www.w3.org/1999/02/22-rdf-syntax-ns#"
   xmlns:svg="http://www.w3.org/2000/svg"
   xmlns="http://www.w3.org/2000/svg"
   xmlns:sodipodi="http://sodipodi.sourceforge.net/DTD/sodipodi-0.dtd"
   xmlns:inkscape="http://www.inkscape.org/namespaces/inkscape"
   version="1.1"
   x="0px"
   y="0px"
   width="30px"
   height="30px"
   viewBox="0 0 30 30"
   enable-background="new 0 0 30 30"
   xml:space="preserve"
   id="svg2"
   inkscape:version="0.48.2 r9819"
   sodipodi:docname="mail.svg"><sodipodi:namedview
   pagecolor="#ffffff"
   bordercolor="#666666"
   borderopacity="1"
   objecttolerance="10"
   gridtolerance="10"
   guidetolerance="10"
   inkscape:pageopacity="0"
   inkscape:pageshadow="2"
   inkscape:window-width="640"
   inkscape:window-height="480"
   id="namedview19"
   showgrid="false"
   inkscape:zoom="7.8666667"
   inkscape:cx="15"
   inkscape:cy="15"
   inkscape:window-x="0"
   inkscape:window-y="0"
   inkscape:window-maximized="0"
   inkscape:current-layer="svg2" /><metadata
   id="metadata23"><rdf:RDF><cc:Work
       rdf:about=""><dc:format>image/svg+xml</dc:format><dc:type
         rdf:resource="http://purl.org/dc/dcmitype/StillImage" /><dc:title></dc:title></cc:Work></rdf:RDF></metadata><defs
   id="defs21" />
<g
   id="DO_NOT_EDIT_-_BOUNDING_BOX">
	<rect
   height="30"
   width="30"
   fill="none"
   id="BOUNDING_BOX" />
</g>
<g
   id="PLACE_YOUR_GRAPHIC_HERE">
	<g
   id="g7">
		<path
   id="path9"
   d="M15.343,0.086c-8.381,0-13.689,4.234-13.689,13.869c0,10.766,4.861,13.957,13.689,13.957    c1.432,0,4.385-0.297,4.385-0.297l-0.119-3.164c0,0-3.072,0.27-4.266,0.27c-7.486,0-10.408-2.863-10.408-10.766    c0-7.277,3.49-10.709,10.408-10.709c6.83,0,9.693,2.627,9.693,9.367v0.537c0,5.041-0.744,5.756-2.236,5.756    c-1.402,0-1.791-0.447-1.791-6.115V6.826h-3.25v0.418c0,0-1.998-0.686-3.074-0.686c-4.65,0-5.813,3.041-5.813,7.963    c0,5.906,2.234,7.486,5.428,7.486c1.67,0,3.668-0.834,4.801-1.4c0.775,1.104,1.939,1.43,3.699,1.43    c3.52,0,5.547-1.818,5.547-8.887v-0.508C28.347,4.41,24.202,0.086,15.343,0.086z M14.538,18.816c-1.373,0-2.387-0.805-2.387-4.268    c0-3.637,0.537-4.92,3.223-4.92c0.863,0,2.385,0.447,2.385,0.447v4.057c0,1.611,0.061,2.895,0.24,3.908    C17.103,18.367,15.731,18.816,14.538,18.816z"
   opacity="0.3" />
		<rect
   id="rect11"
   height="30"
   width="30"
   fill="none"
   opacity="0.31" />
		<path
   id="path13"
   d="M15.343,29.912c-10.296,0-14.689-4.473-14.689-14.957c0-9.588,5.217-14.869,14.689-14.869    c9.292,0,14.004,4.561,14.004,13.557v0.508c0,6.93-1.958,9.887-6.547,9.887c-1.348,0-2.832-0.158-3.952-1.203    c-1.199,0.539-2.952,1.174-4.548,1.174c-4.325,0-6.428-2.776-6.428-8.486c0-4.173,0.774-8.963,6.813-8.963    c0.736,0,1.756,0.247,2.489,0.457c0.164-0.119,0.366-0.189,0.585-0.189h3.25c0.553,0,1,0.448,1,1v5.965    c0,1.15,0,4.648,0.425,5.097c-0.001-0.001,0-0.001,0.002-0.001c0.017,0,0.108,0.02,0.364,0.02c0.579,0,1.236,0,1.236-4.756v-0.537    c0-6.1-2.356-8.367-8.693-8.367c-6.418,0-9.408,3.085-9.408,9.709c0,7.302,2.374,9.766,9.408,9.766    c1.137,0,4.147-0.263,4.179-0.266c0.028-0.003,0.058-0.004,0.087-0.004c0.242,0,0.479,0.088,0.661,0.25    c0.206,0.182,0.328,0.438,0.338,0.712l0.119,3.164c0.021,0.528-0.374,0.98-0.899,1.033C19.705,29.622,16.808,29.912,15.343,29.912    z M15.374,11.629c-1.651,0-2.223,0.19-2.223,3.92c0,3.268,0.902,3.268,1.387,3.268c0.771,0,1.688-0.24,2.356-0.453    c-0.093-0.851-0.136-1.887-0.136-3.23v-3.285C16.264,11.732,15.71,11.629,15.374,11.629z"
   opacity="0.15" />
		<path
   id="path15"
   d="M15.343,1.086c-8.381,0-13.689,4.234-13.689,13.869c0,10.766,4.861,13.957,13.689,13.957    c1.432,0,4.385-0.297,4.385-0.297l-0.119-3.164c0,0-3.072,0.27-4.266,0.27c-7.486,0-10.408-2.863-10.408-10.766    c0-7.277,3.49-10.709,10.408-10.709c6.83,0,9.693,2.627,9.693,9.367v0.537c0,5.041-0.744,5.756-2.236,5.756    c-1.402,0-1.791-0.447-1.791-6.115V7.826h-3.25v0.418c0,0-1.998-0.686-3.074-0.686c-4.65,0-5.813,3.041-5.813,7.963    c0,5.906,2.234,7.486,5.428,7.486c1.67,0,3.668-0.834,4.801-1.4c0.775,1.104,1.939,1.43,3.699,1.43    c3.52,0,5.547-1.818,5.547-8.887v-0.508C28.347,5.41,24.202,1.086,15.343,1.086z M14.538,19.816c-1.373,0-2.387-0.805-2.387-4.268    c0-3.637,0.537-4.92,3.223-4.92c0.863,0,2.385,0.447,2.385,0.447v4.057c0,1.611,0.061,2.895,0.24,3.908    C17.103,19.367,15.731,19.816,14.538,19.816z"
   opacity="0.15" />
		<path
   id="path17"
   d="M15.343,1.086c-8.381,0-13.689,4.234-13.689,13.869c0,10.766,4.861,13.957,13.689,13.957    c1.432,0,4.385-0.297,4.385-0.297l-0.119-3.164c0,0-3.072,0.27-4.266,0.27c-7.486,0-10.408-2.863-10.408-10.766    c0-7.277,3.49-10.709,10.408-10.709c6.83,0,9.693,2.627,9.693,9.367v0.537c0,5.041-0.744,5.756-2.236,5.756    c-1.402,0-1.791-0.447-1.791-6.115V7.826h-3.25v0.418c0,0-1.998-0.686-3.074-0.686c-4.65,0-5.813,3.041-5.813,7.963    c0,5.906,2.234,7.486,5.428,7.486c1.67,0,3.668-0.834,4.801-1.4c0.775,1.104,1.939,1.43,3.699,1.43    c3.52,0,5.547-1.818,5.547-8.887v-0.508C28.347,5.41,24.202,1.086,15.343,1.086z M14.538,19.816c-1.373,0-2.387-0.805-2.387-4.268    c0-3.637,0.537-4.92,3.223-4.92c0.863,0,2.385,0.447,2.385,0.447v4.057c0,1.611,0.061,2.895,0.24,3.908    C17.103,19.367,15.731,19.816,14.538,19.816z"
   fill="#000000" />
	</g>
</g>
</svg>