<?xml version="1.0" encoding="UTF-8" standalone="no"?>
<!-- Generator: Adobe Illustrator 15.0.0, SVG Export Plug-In . SVG Version: 6.00 Build 0)  -->

<svg
   xmlns:dc="http://purl.org/dc/elements/1.1/"
   xmlns:cc="http://creativecommons.org/ns#"
   xmlns:rdf="http://www.w3.org/1999/02/22-rdf-syntax-ns#"
   xmlns:svg="http://www.w3.org/2000/svg"
   xmlns="http://www.w3.org/2000/svg"
   xmlns:sodipodi="http://sodipodi.sourceforge.net/DTD/sodipodi-0.dtd"
   xmlns:inkscape="http://www.inkscape.org/namespaces/inkscape"
   version="1.1"
   x="0px"
   y="0px"
   width="30px"
   height="30px"
   viewBox="0 0 30 30"
   enable-background="new 0 0 30 30"
   xml:space="preserve"
   id="svg2"
   inkscape:version="0.48.2 r9819"
   sodipodi:docname="people.svg"><sodipodi:namedview
   pagecolor="#ffffff"
   bordercolor="#666666"
   borderopacity="1"
   objecttolerance="10"
   gridtolerance="10"
   guidetolerance="10"
   inkscape:pageopacity="0"
   inkscape:pageshadow="2"
   inkscape:window-width="640"
   inkscape:window-height="480"
   id="namedview19"
   showgrid="false"
   inkscape:zoom="7.8666667"
   inkscape:cx="15"
   inkscape:cy="15"
   inkscape:window-x="0"
   inkscape:window-y="0"
   inkscape:window-maximized="0"
   inkscape:current-layer="svg2" /><metadata
   id="metadata23"><rdf:RDF><cc:Work
       rdf:about=""><dc:format>image/svg+xml</dc:format><dc:type
         rdf:resource="http://purl.org/dc/dcmitype/StillImage" /><dc:title></dc:title></cc:Work></rdf:RDF></metadata><defs
   id="defs21" />
<g
   id="DO_NOT_EDIT_-_BOUNDING_BOX">
	<rect
   height="30"
   width="30"
   fill="none"
   id="BOUNDING_BOX" />
</g>
<g
   id="PLACE_YOUR_GRAPHIC_HERE">
	<g
   id="g7">
		<path
   id="path9"
   d="M7.557,20.969c1.318-0.775,2.677-1.305,2.734-1.328c0.522-0.207,0.852-0.57,0.978-1.078    c0.03-0.117,0.054-0.217,0.071-0.299c-0.514-0.621-0.827-1.447-1.006-2.063c-0.497-0.398-0.653-1.119-0.758-1.604    c-0.028-0.137-0.047-0.229-0.068-0.295c-0.192-0.617-0.269-1.057-0.24-1.389c0-0.285,0.063-0.553,0.188-0.785    c-0.115-0.453-0.16-0.867-0.145-1.336c0.008-0.199-0.005-0.377-0.017-0.547c-0.067-0.996-0.041-1.857,0.91-3.383    c0.136-0.236,0.438-0.549,0.875-0.725c0.169-0.311,0.527-0.863,1.348-0.984c-0.113-0.217-0.246-0.451-0.433-0.734    c-0.326-0.494-0.775-0.576-2.643-1.186c-1.861-0.607-2.127,0.164-2.746,0.09C5.99,3.248,5.904,3.502,5.785,3.727    c-0.121,0.223,0,0.4-0.338,0.416C5.108,4.158,4.959,4.42,4.959,4.42C3.953,6.049,4.326,6.539,4.292,7.58    c-0.019,0.553,0.07,0.965,0.355,1.729L4.616,9.268c0,0-0.394-0.188-0.364,0.354c0,0-0.055,0.168,0.169,0.891    c0.134,0.416,0.235,1.574,0.619,1.207c0.013,0.043,0.03,0.088,0.044,0.133c0,0,0.301,1.594,1.067,2.264    c0.155,0.146,0.056,0.602-0.05,1.033c-0.044,0.164-0.263,1.291-1.609,1.836c0,0-1.23,0.482-2.468,1.215    c0,0-0.833,0.42-1.006,1.117L1,19.42c0.704,0.406,1.534,0.738,2.501,0.992c1.688,0.439,2.997,0.559,4.011,0.58    C7.526,20.986,7.549,20.973,7.557,20.969z M28.966,19.316c-0.172-0.697-1.001-1.117-1.001-1.117    c-1.239-0.732-2.47-1.215-2.47-1.215c-0.173-0.068-0.324-0.148-0.461-0.234c-0.757-0.525-1.144-1.461-1.182-1.602    c-0.106-0.432-0.2-0.887-0.049-1.033c0.765-0.67,1.069-2.264,1.069-2.264c0.02-0.063,0.038-0.121,0.061-0.178    c0.375,0.467,0.567-0.629,0.723-1.131c0.162-0.529,0.23-0.877,0.23-0.877c0.066-0.537-0.338-0.379-0.338-0.379l-0.031,0.035    c0.059-0.75,0.272-1.207,0.272-1.881c0.005-1.043,0.258-1.424-0.795-3.021c-0.326-0.494-0.775-0.576-2.643-1.186    c-1.861-0.607-2.127,0.164-2.746,0.09c-0.616-0.076-0.702,0.178-0.821,0.402c-0.121,0.223,0,0.4-0.338,0.416    c-0.339,0.016-0.488,0.277-0.488,0.277c-0.258,0.418-0.423,0.758-0.529,1.055c1.208,0.389,1.815,0.637,2.297,1.359    c1.074,1.611,1.119,2.359,1.065,3.402c-0.008,0.158-0.015,0.299-0.016,0.457c0,0.51-0.089,0.924-0.167,1.291    c0.128,0.166,0.339,0.572,0.261,1.201c-0.019,0.117-0.105,0.533-0.29,1.131l-0.069,0.242c-0.156,0.576-0.358,1.318-0.906,1.691    c-0.179,0.596-0.49,1.393-0.994,2.01c0.016,0.072,0.036,0.162,0.063,0.275c0.033,0.082,0.331,0.684,0.775,0.99    c0.043,0.025,0.139,0.074,0.248,0.117c0.013,0.004,1.379,0.533,2.788,1.355c1.038-0.014,2.405-0.117,4.199-0.586    c0.896-0.236,1.658-0.539,2.315-0.908L28.966,19.316z M21.896,22.043c-1.322-0.773-2.635-1.283-2.635-1.283    c-0.185-0.07-0.346-0.154-0.492-0.246c-0.807-0.555-1.22-1.541-1.26-1.691c-0.113-0.455-0.214-0.936-0.053-1.09    c0.816-0.707,1.141-2.391,1.141-2.391c0.021-0.064,0.041-0.127,0.064-0.186c0.4,0.49,0.605-0.666,0.771-1.195    c0.173-0.559,0.246-0.924,0.246-0.924c0.07-0.568-0.361-0.4-0.361-0.4l-0.033,0.037c0.063-0.791,0.291-1.273,0.291-1.986    c0.005-1.102,0.275-1.502-0.848-3.189c-0.348-0.521-0.828-0.607-2.819-1.25c-1.985-0.643-2.269,0.172-2.929,0.094    c-0.658-0.08-0.749,0.189-0.877,0.426c-0.129,0.234,0,0.422-0.359,0.438c-0.361,0.018-0.521,0.293-0.521,0.293    c-1.072,1.721-0.675,2.236-0.711,3.336c-0.02,0.584,0.074,1.02,0.379,1.826l-0.033-0.045c0,0-0.42-0.197-0.389,0.373    c0,0-0.059,0.178,0.18,0.941c0.143,0.439,0.252,1.66,0.661,1.273c0.013,0.045,0.032,0.094,0.047,0.139    c0,0,0.321,1.684,1.138,2.391c0.166,0.154,0.061,0.635-0.053,1.09c-0.047,0.174-0.279,1.363-1.717,1.938    c0,0-1.313,0.51-2.632,1.283c0,0-0.889,0.443-1.073,1.18L7,23.332c0.751,0.43,1.637,0.779,2.668,1.047    c2.52,0.652,4.256,0.637,5.432,0.611c1.176,0.025,2.91,0.041,5.431-0.611c0.955-0.248,1.769-0.568,2.47-0.959l-0.037-0.197    C22.78,22.486,21.896,22.043,21.896,22.043z"
   opacity="0.3" />
		<path
   id="path11"
   d="M15.799,26.999c-0.26,0-0.5-0.004-0.721-0.009c-0.178,0.005-0.417,0.009-0.678,0.009    c-1.058,0-2.725-0.067-4.982-0.652c-1.104-0.286-2.084-0.672-2.914-1.146c-0.367-0.21-0.562-0.628-0.488-1.044l0.02-0.109    c0.11-0.444,0.338-0.809,0.588-1.096c-1.099-0.08-2.211-0.269-3.374-0.571c-1.04-0.273-1.964-0.641-2.749-1.094    c-0.365-0.211-0.559-0.628-0.484-1.043l0.019-0.104c0.283-1.151,1.333-1.729,1.54-1.833c1.232-0.732,2.5-1.232,2.553-1.253    c0.527-0.214,0.866-0.591,0.997-1.116c0.02-0.08,0.056-0.23,0.082-0.358c-0.52-0.602-0.82-1.44-0.976-2    c-0.453-0.338-0.596-1.013-0.692-1.466c-0.024-0.114-0.044-0.221-0.068-0.295c-0.198-0.641-0.238-1.009-0.218-1.252    c0-0.321,0.083-0.563,0.187-0.74c-0.109-0.415-0.161-0.81-0.145-1.28C3.299,8.34,3.286,8.159,3.274,7.985    c-0.06-0.89-0.036-1.682,0.833-3.091C4.237,4.668,4.515,4.39,4.909,4.244c0.132-0.255,0.489-0.933,1.492-0.933    c0.098,0,0.207,0.006,0.328,0.021c-0.037-0.01,0.012-0.034,0.067-0.056C7.068,3.166,7.479,3,8.1,3    c0.465,0,0.977,0.093,1.563,0.284l0.689,0.223c1.417,0.455,2.002,0.643,2.478,1.363c0.209,0.317,0.358,0.58,0.484,0.822    c0.083,0.159,0.121,0.335,0.113,0.51C13.701,6.102,14.071,6,14.572,6c0.489,0,1.027,0.097,1.645,0.297l0.219,0.069    c0.009-0.078,0.026-0.154,0.053-0.229c0.137-0.382,0.34-0.789,0.619-1.242c0.13-0.227,0.407-0.505,0.802-0.651    c0.132-0.255,0.489-0.933,1.492-0.933c0.097,0,0.206,0.006,0.328,0.021c-0.037-0.01,0.012-0.034,0.066-0.056    C20.067,3.166,20.479,3,21.1,3c0.466,0,0.978,0.093,1.563,0.284l0.689,0.223c1.416,0.455,2.002,0.643,2.478,1.363    c0.982,1.491,1.023,2.18,0.976,3.137c-0.007,0.135-0.015,0.278-0.016,0.44c0,0.466-0.081,0.851-0.152,1.191    c-0.005,0.027-0.011,0.054-0.017,0.081c0.163,0.207,0.322,0.55,0.258,1.07c-0.011,0.07-0.086,0.458-0.267,1.047    c-0.023,0.077-0.047,0.166-0.072,0.261c-0.137,0.506-0.324,1.208-0.825,1.524c-0.159,0.553-0.458,1.357-0.966,1.955    c0.015,0.078,0.038,0.185,0.074,0.333c0.032,0.083,0.323,0.701,0.781,1.02c0.05,0.03,0.147,0.082,0.259,0.126    c0.05,0.02,1.317,0.52,2.61,1.283c0.149,0.074,1.195,0.651,1.463,1.739l0.047,0.247c0.077,0.42-0.121,0.843-0.494,1.052    c-0.746,0.419-1.58,0.747-2.55,1.003c-1.472,0.385-2.655,0.53-3.552,0.587c0.234,0.271,0.445,0.61,0.546,1.016l0.049,0.254    c0.08,0.423-0.12,0.849-0.496,1.059c-0.793,0.441-1.678,0.786-2.705,1.053C18.522,26.932,16.856,26.999,15.799,26.999    C15.799,26.999,15.799,26.999,15.799,26.999z"
   opacity="0.15" />
		<path
   id="path13"
   d="M7.557,21.969c1.318-0.775,2.677-1.305,2.734-1.328c0.522-0.207,0.852-0.57,0.978-1.078    c0.03-0.117,0.054-0.217,0.071-0.299c-0.514-0.621-0.827-1.447-1.006-2.063c-0.497-0.398-0.653-1.119-0.758-1.604    c-0.028-0.137-0.047-0.229-0.068-0.295c-0.192-0.617-0.269-1.057-0.24-1.389c0-0.285,0.063-0.553,0.188-0.785    c-0.115-0.453-0.16-0.867-0.145-1.336c0.008-0.199-0.005-0.377-0.017-0.547c-0.067-0.996-0.041-1.857,0.91-3.383    c0.136-0.236,0.438-0.549,0.875-0.725c0.169-0.311,0.527-0.863,1.348-0.984c-0.113-0.217-0.246-0.451-0.433-0.734    c-0.326-0.494-0.775-0.576-2.643-1.186c-1.861-0.607-2.127,0.164-2.746,0.09C5.99,4.248,5.904,4.502,5.785,4.727    c-0.121,0.223,0,0.4-0.338,0.416C5.108,5.158,4.959,5.42,4.959,5.42C3.953,7.049,4.326,7.539,4.292,8.58    c-0.019,0.553,0.07,0.965,0.355,1.729l-0.031-0.041c0,0-0.394-0.188-0.364,0.354c0,0-0.055,0.168,0.169,0.891    c0.134,0.416,0.235,1.574,0.619,1.207c0.013,0.043,0.03,0.088,0.044,0.133c0,0,0.301,1.594,1.067,2.264    c0.155,0.146,0.056,0.602-0.05,1.033c-0.044,0.164-0.263,1.291-1.609,1.836c0,0-1.23,0.482-2.468,1.215    c0,0-0.833,0.42-1.006,1.117L1,20.42c0.704,0.406,1.534,0.738,2.501,0.992c1.688,0.439,2.997,0.559,4.011,0.58    C7.526,21.986,7.549,21.973,7.557,21.969z M28.966,20.316c-0.172-0.697-1.001-1.117-1.001-1.117    c-1.239-0.732-2.47-1.215-2.47-1.215c-0.173-0.068-0.324-0.148-0.461-0.234c-0.757-0.525-1.144-1.461-1.182-1.602    c-0.106-0.432-0.2-0.887-0.049-1.033c0.765-0.67,1.069-2.264,1.069-2.264c0.02-0.063,0.038-0.121,0.061-0.178    c0.375,0.467,0.567-0.629,0.723-1.131c0.162-0.529,0.23-0.877,0.23-0.877c0.066-0.537-0.338-0.379-0.338-0.379l-0.031,0.035    c0.059-0.75,0.272-1.207,0.272-1.881c0.005-1.043,0.258-1.424-0.795-3.021c-0.326-0.494-0.775-0.576-2.643-1.186    c-1.861-0.607-2.127,0.164-2.746,0.09c-0.616-0.076-0.702,0.178-0.821,0.402c-0.121,0.223,0,0.4-0.338,0.416    c-0.339,0.016-0.488,0.277-0.488,0.277c-0.258,0.418-0.423,0.758-0.529,1.055c1.208,0.389,1.815,0.637,2.297,1.359    c1.074,1.611,1.119,2.359,1.065,3.402c-0.008,0.158-0.015,0.299-0.016,0.457c0,0.51-0.089,0.924-0.167,1.291    c0.128,0.166,0.339,0.572,0.261,1.201c-0.019,0.117-0.105,0.533-0.29,1.131l-0.069,0.242c-0.156,0.576-0.358,1.318-0.906,1.691    c-0.179,0.596-0.49,1.393-0.994,2.01c0.016,0.072,0.036,0.162,0.063,0.275c0.033,0.082,0.331,0.684,0.775,0.99    c0.043,0.025,0.139,0.074,0.248,0.117c0.013,0.004,1.379,0.533,2.788,1.355c1.038-0.014,2.405-0.117,4.199-0.586    c0.896-0.236,1.658-0.539,2.315-0.908L28.966,20.316z M21.896,23.043c-1.322-0.773-2.635-1.283-2.635-1.283    c-0.185-0.07-0.346-0.154-0.492-0.246c-0.807-0.555-1.22-1.541-1.26-1.691c-0.113-0.455-0.214-0.936-0.053-1.09    c0.816-0.707,1.141-2.391,1.141-2.391c0.021-0.064,0.041-0.127,0.064-0.186c0.4,0.49,0.605-0.666,0.771-1.195    c0.173-0.559,0.246-0.924,0.246-0.924c0.07-0.568-0.361-0.4-0.361-0.4l-0.033,0.037c0.063-0.791,0.291-1.273,0.291-1.986    c0.005-1.102,0.275-1.502-0.848-3.189c-0.348-0.521-0.828-0.607-2.819-1.25c-1.985-0.643-2.269,0.172-2.929,0.094    c-0.658-0.08-0.749,0.189-0.877,0.426c-0.129,0.234,0,0.422-0.359,0.438c-0.361,0.018-0.521,0.293-0.521,0.293    c-1.072,1.721-0.675,2.236-0.711,3.336c-0.02,0.584,0.074,1.02,0.379,1.826l-0.033-0.045c0,0-0.42-0.197-0.389,0.373    c0,0-0.059,0.178,0.18,0.941c0.143,0.439,0.252,1.66,0.661,1.273c0.013,0.045,0.032,0.094,0.047,0.139    c0,0,0.321,1.684,1.138,2.391c0.166,0.154,0.061,0.635-0.053,1.09c-0.047,0.174-0.279,1.363-1.717,1.938    c0,0-1.313,0.51-2.632,1.283c0,0-0.889,0.443-1.073,1.18L7,24.332c0.751,0.43,1.637,0.779,2.668,1.047    c2.52,0.652,4.256,0.637,5.432,0.611c1.176,0.025,2.91,0.041,5.431-0.611c0.955-0.248,1.769-0.568,2.47-0.959l-0.037-0.197    C22.78,23.486,21.896,23.043,21.896,23.043z"
   opacity="0.15" />
		<path
   id="path15"
   d="M7.557,21.969c1.318-0.775,2.677-1.305,2.734-1.328c0.522-0.207,0.852-0.57,0.978-1.078    c0.03-0.117,0.054-0.217,0.071-0.299c-0.514-0.621-0.827-1.447-1.006-2.063c-0.497-0.398-0.653-1.119-0.758-1.604    c-0.028-0.137-0.047-0.229-0.068-0.295c-0.192-0.617-0.269-1.057-0.24-1.389c0-0.285,0.063-0.553,0.188-0.785    c-0.115-0.453-0.16-0.867-0.145-1.336c0.008-0.199-0.005-0.377-0.017-0.547c-0.067-0.996-0.041-1.857,0.91-3.383    c0.136-0.236,0.438-0.549,0.875-0.725c0.169-0.311,0.527-0.863,1.348-0.984c-0.113-0.217-0.246-0.451-0.433-0.734    c-0.326-0.494-0.775-0.576-2.643-1.186c-1.861-0.607-2.127,0.164-2.746,0.09C5.99,4.248,5.904,4.502,5.785,4.727    c-0.121,0.223,0,0.4-0.338,0.416C5.108,5.158,4.959,5.42,4.959,5.42C3.953,7.049,4.326,7.539,4.292,8.58    c-0.019,0.553,0.07,0.965,0.355,1.729l-0.031-0.041c0,0-0.394-0.188-0.364,0.354c0,0-0.055,0.168,0.169,0.891    c0.134,0.416,0.235,1.574,0.619,1.207c0.013,0.043,0.03,0.088,0.044,0.133c0,0,0.301,1.594,1.067,2.264    c0.155,0.146,0.056,0.602-0.05,1.033c-0.044,0.164-0.263,1.291-1.609,1.836c0,0-1.23,0.482-2.468,1.215    c0,0-0.833,0.42-1.006,1.117L1,20.42c0.704,0.406,1.534,0.738,2.501,0.992c1.688,0.439,2.997,0.559,4.011,0.58    C7.526,21.986,7.549,21.973,7.557,21.969z M28.966,20.316c-0.172-0.697-1.001-1.117-1.001-1.117    c-1.239-0.732-2.47-1.215-2.47-1.215c-0.173-0.068-0.324-0.148-0.461-0.234c-0.757-0.525-1.144-1.461-1.182-1.602    c-0.106-0.432-0.2-0.887-0.049-1.033c0.765-0.67,1.069-2.264,1.069-2.264c0.02-0.063,0.038-0.121,0.061-0.178    c0.375,0.467,0.567-0.629,0.723-1.131c0.162-0.529,0.23-0.877,0.23-0.877c0.066-0.537-0.338-0.379-0.338-0.379l-0.031,0.035    c0.059-0.75,0.272-1.207,0.272-1.881c0.005-1.043,0.258-1.424-0.795-3.021c-0.326-0.494-0.775-0.576-2.643-1.186    c-1.861-0.607-2.127,0.164-2.746,0.09c-0.616-0.076-0.702,0.178-0.821,0.402c-0.121,0.223,0,0.4-0.338,0.416    c-0.339,0.016-0.488,0.277-0.488,0.277c-0.258,0.418-0.423,0.758-0.529,1.055c1.208,0.389,1.815,0.637,2.297,1.359    c1.074,1.611,1.119,2.359,1.065,3.402c-0.008,0.158-0.015,0.299-0.016,0.457c0,0.51-0.089,0.924-0.167,1.291    c0.128,0.166,0.339,0.572,0.261,1.201c-0.019,0.117-0.105,0.533-0.29,1.131l-0.069,0.242c-0.156,0.576-0.358,1.318-0.906,1.691    c-0.179,0.596-0.49,1.393-0.994,2.01c0.016,0.072,0.036,0.162,0.063,0.275c0.033,0.082,0.331,0.684,0.775,0.99    c0.043,0.025,0.139,0.074,0.248,0.117c0.013,0.004,1.379,0.533,2.788,1.355c1.038-0.014,2.405-0.117,4.199-0.586    c0.896-0.236,1.658-0.539,2.315-0.908L28.966,20.316z M21.896,23.043c-1.322-0.773-2.635-1.283-2.635-1.283    c-0.185-0.07-0.346-0.154-0.492-0.246c-0.807-0.555-1.22-1.541-1.26-1.691c-0.113-0.455-0.214-0.936-0.053-1.09    c0.816-0.707,1.141-2.391,1.141-2.391c0.021-0.064,0.041-0.127,0.064-0.186c0.4,0.49,0.605-0.666,0.771-1.195    c0.173-0.559,0.246-0.924,0.246-0.924c0.07-0.568-0.361-0.4-0.361-0.4l-0.033,0.037c0.063-0.791,0.291-1.273,0.291-1.986    c0.005-1.102,0.275-1.502-0.848-3.189c-0.348-0.521-0.828-0.607-2.819-1.25c-1.985-0.643-2.269,0.172-2.929,0.094    c-0.658-0.08-0.749,0.189-0.877,0.426c-0.129,0.234,0,0.422-0.359,0.438c-0.361,0.018-0.521,0.293-0.521,0.293    c-1.072,1.721-0.675,2.236-0.711,3.336c-0.02,0.584,0.074,1.02,0.379,1.826l-0.033-0.045c0,0-0.42-0.197-0.389,0.373    c0,0-0.059,0.178,0.18,0.941c0.143,0.439,0.252,1.66,0.661,1.273c0.013,0.045,0.032,0.094,0.047,0.139    c0,0,0.321,1.684,1.138,2.391c0.166,0.154,0.061,0.635-0.053,1.09c-0.047,0.174-0.279,1.363-1.717,1.938    c0,0-1.313,0.51-2.632,1.283c0,0-0.889,0.443-1.073,1.18L7,24.332c0.751,0.43,1.637,0.779,2.668,1.047    c2.52,0.652,4.256,0.637,5.432,0.611c1.176,0.025,2.91,0.041,5.431-0.611c0.955-0.248,1.769-0.568,2.47-0.959l-0.037-0.197    C22.78,23.486,21.896,23.043,21.896,23.043z"
   fill="#000000" />
		<rect
   id="rect17"
   height="30"
   width="30"
   fill="none" />
	</g>
</g>
</svg>