<?xml version="1.0" encoding="UTF-8" standalone="no"?>
<!-- Generator: Adobe Illustrator 15.0.0, SVG Export Plug-In . SVG Version: 6.00 Build 0)  -->

<svg
   xmlns:dc="http://purl.org/dc/elements/1.1/"
   xmlns:cc="http://creativecommons.org/ns#"
   xmlns:rdf="http://www.w3.org/1999/02/22-rdf-syntax-ns#"
   xmlns:svg="http://www.w3.org/2000/svg"
   xmlns="http://www.w3.org/2000/svg"
   xmlns:sodipodi="http://sodipodi.sourceforge.net/DTD/sodipodi-0.dtd"
   xmlns:inkscape="http://www.inkscape.org/namespaces/inkscape"
   version="1.1"
   x="0px"
   y="0px"
   width="30px"
   height="30px"
   viewBox="0 0 30 30"
   enable-background="new 0 0 30 30"
   xml:space="preserve"
   id="svg2"
   inkscape:version="0.48.2 r9819"
   sodipodi:docname="photos.svg"><sodipodi:namedview
   pagecolor="#ffffff"
   bordercolor="#666666"
   borderopacity="1"
   objecttolerance="10"
   gridtolerance="10"
   guidetolerance="10"
   inkscape:pageopacity="0"
   inkscape:pageshadow="2"
   inkscape:window-width="640"
   inkscape:window-height="480"
   id="namedview15"
   showgrid="false"
   inkscape:zoom="7.8666667"
   inkscape:cx="15"
   inkscape:cy="15"
   inkscape:window-x="0"
   inkscape:window-y="0"
   inkscape:window-maximized="0"
   inkscape:current-layer="svg2" /><metadata
   id="metadata19"><rdf:RDF><cc:Work
       rdf:about=""><dc:format>image/svg+xml</dc:format><dc:type
         rdf:resource="http://purl.org/dc/dcmitype/StillImage" /><dc:title></dc:title></cc:Work></rdf:RDF></metadata><defs
   id="defs17" />
<g
   id="DO_NOT_EDIT_-_BOUNDING_BOX">
	<rect
   height="30"
   width="30"
   fill="none"
   id="BOUNDING_BOX" />
</g>
<g
   id="PLACE_YOUR_GRAPHIC_HERE">
	<path
   id="path7"
   d="M24.5,16.5l-5.146-5.146c-0.194-0.193-0.513-0.193-0.707,0L13.5,16.5l-3.146-3.146   c-0.194-0.193-0.513-0.193-0.707,0L5.5,17.5v4h19V16.5z M27,5H3C2.45,5,2,5.451,2,6v18c0,0.551,0.45,1,1,1h24c0.55,0,1-0.449,1-1V6   C28,5.451,27.55,5,27,5z M26,23H4V7h22V23z"
   opacity="0.3" />
	<path
   id="path9"
   d="M3,27c-1.103,0-2-0.897-2-2V7c0-1.103,0.897-2,2-2h24c1.103,0,2,0.897,2,2v18c0,1.103-0.897,2-2,2H3z"
   opacity="0.15" />
	<path
   id="path11"
   d="M24.5,17.5l-5.146-5.146c-0.194-0.193-0.513-0.193-0.707,0L13.5,17.5l-3.146-3.146   c-0.194-0.193-0.513-0.193-0.707,0L5.5,18.5v4h19V17.5z M27,6H3C2.45,6,2,6.451,2,7v18c0,0.551,0.45,1,1,1h24c0.55,0,1-0.449,1-1V7   C28,6.451,27.55,6,27,6z M26,24H4V8h22V24z"
   opacity="0.15" />
	<path
   id="path13"
   d="M24.5,17.5l-5.146-5.146c-0.194-0.193-0.513-0.193-0.707,0L13.5,17.5l-3.146-3.146   c-0.194-0.193-0.513-0.193-0.707,0L5.5,18.5v4h19V17.5z M27,6H3C2.45,6,2,6.451,2,7v18c0,0.551,0.45,1,1,1h24c0.55,0,1-0.449,1-1V7   C28,6.451,27.55,6,27,6z M26,24H4V8h22V24z"
   fill="#000000" />
</g>
</svg>