<?xml version="1.0" encoding="utf-8"?>
<!-- Generator: Adobe Illustrator 15.0.0, SVG Export Plug-In . SVG Version: 6.00 Build 0)  -->
<!DOCTYPE svg PUBLIC "-//W3C//DTD SVG 1.1//EN" "http://www.w3.org/Graphics/SVG/1.1/DTD/svg11.dtd">
<svg version="1.1" xmlns="http://www.w3.org/2000/svg" xmlns:xlink="http://www.w3.org/1999/xlink" x="0px" y="0px" width="30px"
	 height="30px" viewBox="0 0 30 30" enable-background="new 0 0 30 30" xml:space="preserve">
<g id="DO_NOT_EDIT_-_BOUNDING_BOX">
	<rect id="BOUNDING_BOX" fill="none" width="30" height="30"/>
</g>
<g id="PLACE_YOUR_GRAPHIC_HERE">
	<path opacity="0.3" d="M24.5,16.5l-5.146-5.146c-0.194-0.193-0.513-0.193-0.707,0L13.5,16.5l-3.146-3.146
		c-0.194-0.193-0.513-0.193-0.707,0L5.5,17.5v4h19V16.5z M27,5H3C2.45,5,2,5.451,2,6v18c0,0.551,0.45,1,1,1h24c0.55,0,1-0.449,1-1V6
		C28,5.451,27.55,5,27,5z M26,23H4V7h22V23z"/>
	<path opacity="0.15" d="M3,27c-1.103,0-2-0.897-2-2V7c0-1.103,0.897-2,2-2h24c1.103,0,2,0.897,2,2v18c0,1.103-0.897,2-2,2H3z"/>
	<path opacity="0.15" d="M24.5,17.5l-5.146-5.146c-0.194-0.193-0.513-0.193-0.707,0L13.5,17.5l-3.146-3.146
		c-0.194-0.193-0.513-0.193-0.707,0L5.5,18.5v4h19V17.5z M27,6H3C2.45,6,2,6.451,2,7v18c0,0.551,0.45,1,1,1h24c0.55,0,1-0.449,1-1V7
		C28,6.451,27.55,6,27,6z M26,24H4V8h22V24z"/>
	<path fill="#FFFFFF" d="M24.5,17.5l-5.146-5.146c-0.194-0.193-0.513-0.193-0.707,0L13.5,17.5l-3.146-3.146
		c-0.194-0.193-0.513-0.193-0.707,0L5.5,18.5v4h19V17.5z M27,6H3C2.45,6,2,6.451,2,7v18c0,0.551,0.45,1,1,1h24c0.55,0,1-0.449,1-1V7
		C28,6.451,27.55,6,27,6z M26,24H4V8h22V24z"/>
</g>
</svg>
