<?xml version="1.0" encoding="utf-8"?>
<!-- Generator: Adobe Illustrator 15.0.0, SVG Export Plug-In . SVG Version: 6.00 Build 0)  -->
<!DOCTYPE svg PUBLIC "-//W3C//DTD SVG 1.1//EN" "http://www.w3.org/Graphics/SVG/1.1/DTD/svg11.dtd">
<svg version="1.1" xmlns="http://www.w3.org/2000/svg" xmlns:xlink="http://www.w3.org/1999/xlink" x="0px" y="0px" width="30px"
	 height="30px" viewBox="0 0 30 30" enable-background="new 0 0 30 30" xml:space="preserve">
<g id="DO_NOT_EDIT_-_BOUNDING_BOX">
	<rect id="BOUNDING_BOX" fill="none" width="30" height="30"/>
</g>
<g id="PLACE_YOUR_GRAPHIC_HERE">
	<path opacity="0.3" d="M21,2H9v8h12V2z M23,3.648V11c0,0.553-0.449,1-1,1H8c-0.553,0-1-0.447-1-1V2H4C3.447,2,3,2.447,3,3v22
		c0,0.553,0.447,1,1,1h22c0.553,0,1-0.447,1-1V7.648L23,3.648z"/>
	<path opacity="0.15" d="M4,28c-1.103,0-2-0.897-2-2V4c0-1.103,0.897-2,2-2h3c0.552,0,14,0,14,0c0.233,0,0.447,0.08,0.617,0.213
		c0.233,0.183,1.898,1.537,2.09,1.728l4,4C27.895,8.129,28,8.383,28,8.648V26c0,1.103-0.897,2-2,2H4z"/>
	<path opacity="0.15" d="M21,3H9v8h12V3z M23,4.648V12c0,0.553-0.449,1-1,1H8c-0.553,0-1-0.447-1-1V3H4C3.447,3,3,3.447,3,4v22
		c0,0.553,0.447,1,1,1h22c0.553,0,1-0.447,1-1V8.648L23,4.648z"/>
	<path fill="#FFFFFF" d="M21,3H9v8h12V3z M23,4.648V12c0,0.553-0.449,1-1,1H8c-0.553,0-1-0.447-1-1V3H4C3.447,3,3,3.447,3,4v22
		c0,0.553,0.447,1,1,1h22c0.553,0,1-0.447,1-1V8.648L23,4.648z"/>
</g>
</svg>
