<?xml version="1.0" encoding="UTF-8" standalone="no"?>
<!-- Generator: Adobe Illustrator 15.0.0, SVG Export Plug-In . SVG Version: 6.00 Build 0)  -->

<svg
   xmlns:dc="http://purl.org/dc/elements/1.1/"
   xmlns:cc="http://creativecommons.org/ns#"
   xmlns:rdf="http://www.w3.org/1999/02/22-rdf-syntax-ns#"
   xmlns:svg="http://www.w3.org/2000/svg"
   xmlns="http://www.w3.org/2000/svg"
   xmlns:sodipodi="http://sodipodi.sourceforge.net/DTD/sodipodi-0.dtd"
   xmlns:inkscape="http://www.inkscape.org/namespaces/inkscape"
   version="1.1"
   x="0px"
   y="0px"
   width="30px"
   height="30px"
   viewBox="0 0 30 30"
   enable-background="new 0 0 30 30"
   xml:space="preserve"
   id="svg2"
   inkscape:version="0.48.2 r9819"
   sodipodi:docname="save.svg"><sodipodi:namedview
   pagecolor="#ffffff"
   bordercolor="#666666"
   borderopacity="1"
   objecttolerance="10"
   gridtolerance="10"
   guidetolerance="10"
   inkscape:pageopacity="0"
   inkscape:pageshadow="2"
   inkscape:window-width="640"
   inkscape:window-height="480"
   id="namedview15"
   showgrid="false"
   inkscape:zoom="7.8666667"
   inkscape:cx="15"
   inkscape:cy="15"
   inkscape:window-x="0"
   inkscape:window-y="0"
   inkscape:window-maximized="0"
   inkscape:current-layer="svg2" /><metadata
   id="metadata19"><rdf:RDF><cc:Work
       rdf:about=""><dc:format>image/svg+xml</dc:format><dc:type
         rdf:resource="http://purl.org/dc/dcmitype/StillImage" /><dc:title></dc:title></cc:Work></rdf:RDF></metadata><defs
   id="defs17" />
<g
   id="DO_NOT_EDIT_-_BOUNDING_BOX">
	<rect
   height="30"
   width="30"
   fill="none"
   id="BOUNDING_BOX" />
</g>
<g
   id="PLACE_YOUR_GRAPHIC_HERE">
	<path
   id="path7"
   d="M21,2H9v8h12V2z M23,3.648V11c0,0.553-0.449,1-1,1H8c-0.553,0-1-0.447-1-1V2H4C3.447,2,3,2.447,3,3v22   c0,0.553,0.447,1,1,1h22c0.553,0,1-0.447,1-1V7.648L23,3.648z"
   opacity="0.3" />
	<path
   id="path9"
   d="M4,28c-1.103,0-2-0.897-2-2V4c0-1.103,0.897-2,2-2h3c0.552,0,14,0,14,0c0.233,0,0.447,0.08,0.617,0.213   c0.233,0.183,1.898,1.537,2.09,1.728l4,4C27.895,8.129,28,8.383,28,8.648V26c0,1.103-0.897,2-2,2H4z"
   opacity="0.15" />
	<path
   id="path11"
   d="M21,3H9v8h12V3z M23,4.648V12c0,0.553-0.449,1-1,1H8c-0.553,0-1-0.447-1-1V3H4C3.447,3,3,3.447,3,4v22   c0,0.553,0.447,1,1,1h22c0.553,0,1-0.447,1-1V8.648L23,4.648z"
   opacity="0.15" />
	<path
   id="path13"
   d="M21,3H9v8h12V3z M23,4.648V12c0,0.553-0.449,1-1,1H8c-0.553,0-1-0.447-1-1V3H4C3.447,3,3,3.447,3,4v22   c0,0.553,0.447,1,1,1h22c0.553,0,1-0.447,1-1V8.648L23,4.648z"
   fill="#000000" />
</g>
</svg>