<?xml version="1.0" encoding="utf-8"?>
<!-- Generator: Adobe Illustrator 15.0.0, SVG Export Plug-In . SVG Version: 6.00 Build 0)  -->
<!DOCTYPE svg PUBLIC "-//W3C//DTD SVG 1.1//EN" "http://www.w3.org/Graphics/SVG/1.1/DTD/svg11.dtd">
<svg version="1.1" xmlns="http://www.w3.org/2000/svg" xmlns:xlink="http://www.w3.org/1999/xlink" x="0px" y="0px" width="30px"
	 height="30px" viewBox="0 0 30 30" enable-background="new 0 0 30 30" xml:space="preserve">
<g id="DO_NOT_EDIT_-_BOUNDING_BOX">
	<rect id="BOUNDING_BOX" fill="none" width="30" height="30"/>
</g>
<g id="PLACE_YOUR_GRAPHIC_HERE">
	<g>
		<path opacity="0.3" d="M27.356,16.878c-0.284-0.279-0.982-0.56-1.551-0.621L23.2,15.973c-0.567-0.062-1.268,0.285-1.551,0.771
			l-1.557,1.793h-1.037l-0.519,0.857h-0.519l-0.52,0.509h-0.518l-0.519-0.509h-1.558l-0.519,0.509h-1.038l-0.519-0.509h-0.519
			l-0.518,0.509h-0.52l-0.521-0.509h-0.518l-2.933,2.571l2.933,2.571h8.301l0.519,0.857h1.037l1.557,1.793
			c0.283,0.486,0.982,0.833,1.551,0.771l2.605-0.284c0.568-0.063,1.267-0.342,1.551-0.621c0.286-0.279,0.519-0.967,0.519-1.527
			v-7.122C27.875,17.845,27.643,17.158,27.356,16.878z M26.161,24.537c0,0.474-0.384,0.857-0.857,0.857s-0.857-0.384-0.857-0.857
			v-5.143c0-0.474,0.384-0.857,0.857-0.857s0.857,0.384,0.857,0.857V24.537z M10.236,17.895h0.518c0.276,0,0.546,0.077,0.778,0.218
			c0.233-0.141,0.502-0.218,0.779-0.218h0.519c0.387,0,0.759,0.149,1.037,0.417c0.279-0.268,0.651-0.417,1.038-0.417h1.558
			c0.276,0,0.545,0.076,0.778,0.218c0.132-0.08,0.274-0.14,0.425-0.176l0.076-0.125c-0.624-0.287-1.053-0.456-1.053-0.456
			c-0.209-0.082-0.395-0.178-0.563-0.282c-0.922-0.634-1.395-1.761-1.439-1.933c-0.129-0.52-0.244-1.07-0.061-1.245
			c0.934-0.808,1.305-2.732,1.305-2.732c0.023-0.074,0.045-0.146,0.072-0.212c0.459,0.561,0.693-0.761,0.883-1.367
			c0.197-0.637,0.281-1.056,0.281-1.056c0.08-0.647-0.412-0.457-0.412-0.457l-0.039,0.042c0.07-0.904,0.332-1.454,0.332-2.269
			c0.006-1.26,0.314-1.716-0.969-3.646c-0.396-0.595-0.945-0.694-3.223-1.429c-2.268-0.734-2.592,0.196-3.346,0.106
			C8.76,0.787,8.654,1.096,8.51,1.364c-0.148,0.269,0,0.483-0.412,0.499C7.686,1.885,7.504,2.199,7.504,2.199
			C6.277,4.166,6.732,4.755,6.691,6.011C6.668,6.679,6.775,7.177,7.123,8.099L7.086,8.047c0,0-0.48-0.225-0.443,0.426
			c0,0-0.068,0.204,0.205,1.077c0.162,0.502,0.287,1.896,0.756,1.454c0.014,0.052,0.035,0.107,0.053,0.159
			c0,0,0.367,1.925,1.299,2.732c0.191,0.175,0.07,0.726-0.059,1.245c-0.055,0.198-0.32,1.559-1.963,2.215c0,0-1.5,0.582-3.006,1.465
			c0,0-1.018,0.508-1.229,1.349l-0.021,0.126c0.857,0.49,1.869,0.891,3.049,1.196c0.053,0.014,0.101,0.023,0.151,0.035
			c0.081-0.263,0.226-0.504,0.437-0.688l2.933-2.571C9.521,18.026,9.872,17.895,10.236,17.895z"/>
		<g>
			<rect fill="none" width="30" height="30"/>
		</g>
		<path opacity="0.15" d="M23.066,29.966c-0.868,0-1.766-0.481-2.224-1.183l-1.206-1.389h-0.581c-0.35,0-0.675-0.183-0.855-0.482
			l-0.227-0.375h-7.737c-0.243,0-0.477-0.088-0.659-0.248l-2.933-2.571c-0.107-0.094-0.192-0.209-0.25-0.335
			c-0.153,0.092-0.331,0.144-0.516,0.144c-0.074,0-0.15-0.008-0.226-0.025l0.225-0.975l-0.265,0.966l-0.138-0.033
			c-1.247-0.322-2.355-0.759-3.294-1.296c-0.364-0.208-0.56-0.622-0.489-1.036l0.021-0.126c0.33-1.326,1.622-2.003,1.768-2.075
			c1.498-0.881,3.026-1.478,3.09-1.503c0.711-0.284,1.167-0.786,1.345-1.489c0.06-0.239,0.099-0.416,0.12-0.539
			c-0.666-0.729-1.045-1.813-1.228-2.478c-0.536-0.342-0.704-1.125-0.825-1.688c-0.031-0.145-0.058-0.279-0.088-0.373
			C5.659,10.099,5.615,9.68,5.641,9.411C5.64,9.071,5.721,8.782,5.883,8.546C5.74,8.032,5.672,7.551,5.692,6.976
			C5.7,6.722,5.684,6.497,5.669,6.281C5.596,5.21,5.624,4.324,6.655,2.67c0.148-0.257,0.478-0.577,0.945-0.725
			C7.611,1.924,7.623,1.902,7.635,1.88c0.158-0.303,0.533-1.02,1.632-1.02c0.108,0,0.229,0.007,0.364,0.023
			c0.007-0.006,0.117-0.05,0.197-0.082c0.315-0.126,0.791-0.316,1.502-0.316c0.543,0,1.144,0.109,1.836,0.333l0.838,0.267
			c1.726,0.548,2.372,0.752,2.909,1.558c1.163,1.75,1.213,2.551,1.155,3.664C18.06,6.474,18.05,6.651,18.049,6.85
			c0,0.543-0.092,0.977-0.181,1.396c-0.015,0.065-0.028,0.129-0.041,0.193c0.007,0.007,0.014,0.015,0.021,0.022
			c0.184,0.208,0.388,0.584,0.313,1.189c-0.012,0.074-0.103,0.533-0.318,1.229c-0.029,0.094-0.059,0.204-0.09,0.321
			c-0.171,0.63-0.392,1.444-0.983,1.756c-0.179,0.633-0.557,1.698-1.221,2.433c0.018,0.106,0.05,0.267,0.111,0.51
			c0.047,0.131,0.418,0.925,1.035,1.349c0.081,0.05,0.213,0.117,0.361,0.176c0.001,0,0.451,0.177,1.105,0.479
			c0.259,0.119,0.455,0.344,0.538,0.616c0.008,0.025,0.015,0.051,0.021,0.076c0.106-0.038,0.221-0.059,0.337-0.059h0.581
			l1.206-1.389c0.458-0.701,1.355-1.183,2.224-1.183c0.082,0,0.162,0.004,0.241,0.013l2.606,0.284
			c0.684,0.074,1.641,0.408,2.144,0.902c0.562,0.55,0.817,1.546,0.817,2.239v7.122c0,0.694-0.257,1.693-0.82,2.243
			c-0.498,0.49-1.454,0.824-2.14,0.899l-2.606,0.284C23.229,29.962,23.147,29.966,23.066,29.966z"/>
		<path opacity="0.15" d="M27.356,17.878c-0.284-0.279-0.982-0.56-1.551-0.621L23.2,16.973c-0.567-0.062-1.268,0.285-1.551,0.771
			l-1.557,1.793h-1.037l-0.519,0.857h-0.519l-0.52,0.509h-0.518l-0.519-0.509h-1.558l-0.519,0.509h-1.038l-0.519-0.509h-0.519
			l-0.518,0.509h-0.52l-0.521-0.509h-0.518l-2.933,2.571l2.933,2.571h8.301l0.519,0.857h1.037l1.557,1.793
			c0.283,0.486,0.982,0.833,1.551,0.771l2.605-0.284c0.568-0.063,1.267-0.342,1.551-0.621c0.286-0.279,0.519-0.967,0.519-1.527
			v-7.122C27.875,18.845,27.643,18.158,27.356,17.878z M26.161,25.537c0,0.474-0.384,0.857-0.857,0.857s-0.857-0.384-0.857-0.857
			v-5.143c0-0.474,0.384-0.857,0.857-0.857s0.857,0.384,0.857,0.857V25.537z M10.236,18.895h0.518c0.276,0,0.546,0.077,0.778,0.218
			c0.233-0.141,0.502-0.218,0.779-0.218h0.519c0.387,0,0.759,0.149,1.037,0.417c0.279-0.268,0.651-0.417,1.038-0.417h1.558
			c0.276,0,0.545,0.076,0.778,0.218c0.132-0.08,0.274-0.14,0.425-0.176l0.076-0.125c-0.624-0.287-1.053-0.456-1.053-0.456
			c-0.209-0.082-0.395-0.178-0.563-0.282c-0.922-0.634-1.395-1.761-1.439-1.933c-0.129-0.52-0.244-1.07-0.061-1.245
			c0.934-0.808,1.305-2.732,1.305-2.732c0.023-0.074,0.045-0.146,0.072-0.212c0.459,0.561,0.693-0.761,0.883-1.367
			c0.197-0.637,0.281-1.056,0.281-1.056c0.08-0.647-0.412-0.457-0.412-0.457l-0.039,0.042c0.07-0.904,0.332-1.454,0.332-2.269
			c0.006-1.26,0.314-1.716-0.969-3.646c-0.396-0.595-0.945-0.694-3.223-1.429c-2.268-0.734-2.592,0.196-3.346,0.106
			C8.76,1.787,8.654,2.096,8.51,2.364c-0.148,0.269,0,0.483-0.412,0.499C7.686,2.885,7.504,3.199,7.504,3.199
			C6.277,5.166,6.732,5.755,6.691,7.011C6.668,7.679,6.775,8.177,7.123,9.099L7.086,9.047c0,0-0.48-0.225-0.443,0.426
			c0,0-0.068,0.204,0.205,1.077c0.162,0.502,0.287,1.896,0.756,1.454c0.014,0.052,0.035,0.107,0.053,0.159
			c0,0,0.367,1.925,1.299,2.732c0.191,0.175,0.07,0.726-0.059,1.245c-0.055,0.198-0.32,1.559-1.963,2.215c0,0-1.5,0.582-3.006,1.465
			c0,0-1.018,0.508-1.229,1.349l-0.021,0.126c0.857,0.49,1.869,0.891,3.049,1.196c0.053,0.014,0.101,0.023,0.151,0.035
			c0.081-0.263,0.226-0.504,0.437-0.688l2.933-2.571C9.521,19.026,9.872,18.895,10.236,18.895z"/>
		<path fill="#FFFFFF" d="M27.356,17.878c-0.284-0.279-0.982-0.56-1.551-0.621L23.2,16.973c-0.567-0.062-1.268,0.285-1.551,0.771
			l-1.557,1.793h-1.037l-0.519,0.857h-0.519l-0.52,0.509h-0.518l-0.519-0.509h-1.558l-0.519,0.509h-1.038l-0.519-0.509h-0.519
			l-0.518,0.509h-0.52l-0.521-0.509h-0.518l-2.933,2.571l2.933,2.571h8.301l0.519,0.857h1.037l1.557,1.793
			c0.283,0.486,0.982,0.833,1.551,0.771l2.605-0.284c0.568-0.063,1.267-0.342,1.551-0.621c0.286-0.279,0.519-0.967,0.519-1.527
			v-7.122C27.875,18.845,27.643,18.158,27.356,17.878z M26.161,25.537c0,0.474-0.384,0.857-0.857,0.857s-0.857-0.384-0.857-0.857
			v-5.143c0-0.474,0.384-0.857,0.857-0.857s0.857,0.384,0.857,0.857V25.537z M10.236,18.895h0.518c0.276,0,0.546,0.077,0.778,0.218
			c0.233-0.141,0.502-0.218,0.779-0.218h0.519c0.387,0,0.759,0.149,1.037,0.417c0.279-0.268,0.651-0.417,1.038-0.417h1.558
			c0.276,0,0.545,0.076,0.778,0.218c0.132-0.08,0.274-0.14,0.425-0.176l0.076-0.125c-0.624-0.287-1.053-0.456-1.053-0.456
			c-0.209-0.082-0.395-0.178-0.563-0.282c-0.922-0.634-1.395-1.761-1.439-1.933c-0.129-0.52-0.244-1.07-0.061-1.245
			c0.934-0.808,1.305-2.732,1.305-2.732c0.023-0.074,0.045-0.146,0.072-0.212c0.459,0.561,0.693-0.761,0.883-1.367
			c0.197-0.637,0.281-1.056,0.281-1.056c0.08-0.647-0.412-0.457-0.412-0.457l-0.039,0.042c0.07-0.904,0.332-1.454,0.332-2.269
			c0.006-1.26,0.314-1.716-0.969-3.646c-0.396-0.595-0.945-0.694-3.223-1.429c-2.268-0.734-2.592,0.196-3.346,0.106
			C8.76,1.787,8.654,2.096,8.51,2.364c-0.148,0.269,0,0.483-0.412,0.499C7.686,2.885,7.504,3.199,7.504,3.199
			C6.277,5.166,6.732,5.755,6.691,7.011C6.668,7.679,6.775,8.177,7.123,9.099L7.086,9.047c0,0-0.48-0.225-0.443,0.426
			c0,0-0.068,0.204,0.205,1.077c0.162,0.502,0.287,1.896,0.756,1.454c0.014,0.052,0.035,0.107,0.053,0.159
			c0,0,0.367,1.925,1.299,2.732c0.191,0.175,0.07,0.726-0.059,1.245c-0.055,0.198-0.32,1.559-1.963,2.215c0,0-1.5,0.582-3.006,1.465
			c0,0-1.018,0.508-1.229,1.349l-0.021,0.126c0.857,0.49,1.869,0.891,3.049,1.196c0.053,0.014,0.101,0.023,0.151,0.035
			c0.081-0.263,0.226-0.504,0.437-0.688l2.933-2.571C9.521,19.026,9.872,18.895,10.236,18.895z"/>
	</g>
</g>
</svg>
