<?xml version="1.0" encoding="UTF-8" standalone="no"?>
<!-- Generator: Adobe Illustrator 15.0.0, SVG Export Plug-In . SVG Version: 6.00 Build 0)  -->

<svg
   xmlns:dc="http://purl.org/dc/elements/1.1/"
   xmlns:cc="http://creativecommons.org/ns#"
   xmlns:rdf="http://www.w3.org/1999/02/22-rdf-syntax-ns#"
   xmlns:svg="http://www.w3.org/2000/svg"
   xmlns="http://www.w3.org/2000/svg"
   xmlns:sodipodi="http://sodipodi.sourceforge.net/DTD/sodipodi-0.dtd"
   xmlns:inkscape="http://www.inkscape.org/namespaces/inkscape"
   version="1.1"
   x="0px"
   y="0px"
   width="30px"
   height="30px"
   viewBox="0 0 30 30"
   enable-background="new 0 0 30 30"
   xml:space="preserve"
   id="svg2"
   inkscape:version="0.48.2 r9819"
   sodipodi:docname="undo.svg"><sodipodi:namedview
   pagecolor="#ffffff"
   bordercolor="#666666"
   borderopacity="1"
   objecttolerance="10"
   gridtolerance="10"
   guidetolerance="10"
   inkscape:pageopacity="0"
   inkscape:pageshadow="2"
   inkscape:window-width="640"
   inkscape:window-height="480"
   id="namedview19"
   showgrid="false"
   inkscape:zoom="7.8666667"
   inkscape:cx="15"
   inkscape:cy="15"
   inkscape:window-x="0"
   inkscape:window-y="0"
   inkscape:window-maximized="0"
   inkscape:current-layer="svg2" /><metadata
   id="metadata23"><rdf:RDF><cc:Work
       rdf:about=""><dc:format>image/svg+xml</dc:format><dc:type
         rdf:resource="http://purl.org/dc/dcmitype/StillImage" /><dc:title></dc:title></cc:Work></rdf:RDF></metadata><defs
   id="defs21" />
<g
   id="DO_NOT_EDIT_-_BOUNDING_BOX">
	<rect
   height="30"
   width="30"
   fill="none"
   id="BOUNDING_BOX" />
</g>
<g
   id="PLACE_YOUR_GRAPHIC_HERE">
	<g
   id="g7">
		<path
   id="path9"
   d="M24.042,4.973H11.958l-0.002,0.004c-0.995-0.037-2.005,0.292-2.798,1.007L7.263,7.688l-2.541-2.54    l-1.36,4.991L2,15.129l4.991-1.361l4.99-1.361L9.365,9.789l0.972-0.874h0.001c0.693-0.602,1.592-0.974,2.579-0.974l11.125-0.002    c0.535,0,0.988,0.454,0.988,0.991v10.142c0,0.533-0.453,0.99-0.988,0.99H10.313c-0.494,0-0.898,0.404-0.898,0.898v1.168    c0,0.494,0.404,0.898,0.898,0.898h13.729c2.177,0,3.958-1.781,3.958-3.955V8.931C28,6.754,26.219,4.973,24.042,4.973z"
   opacity="0.3" />
		<path
   id="path11"
   d="M10.313,25.027c-1.047,0-1.898-0.852-1.898-1.898v-1.168c0-1.047,0.852-1.898,1.898-1.898h13.729    L24.03,9.931L12.917,9.941c-0.7,0-1.383,0.259-1.923,0.729l-0.176,0.158l1.87,1.871c0.252,0.252,0.351,0.62,0.259,0.964    c-0.091,0.344-0.359,0.614-0.703,0.708l-9.981,2.723C2.176,17.117,2.088,17.129,2,17.129c-0.262,0-0.517-0.103-0.707-0.293    c-0.254-0.254-0.352-0.624-0.258-0.971l2.723-9.979c0.094-0.344,0.363-0.612,0.708-0.704c0.085-0.023,0.171-0.034,0.257-0.034    c0.262,0,0.517,0.103,0.707,0.293l1.87,1.869l1.189-1.07c0.906-0.816,2.084-1.267,3.316-1.267l12.237-0.001    C26.775,4.973,29,7.197,29,9.931v10.142c0,2.732-2.225,4.955-4.958,4.955H10.313z"
   opacity="0.15" />
		<path
   id="path13"
   d="M24.042,5.973H11.958l-0.002,0.004c-0.995-0.037-2.005,0.292-2.798,1.007L7.263,8.688l-2.541-2.54    l-1.36,4.991L2,16.129l4.991-1.361l4.99-1.361l-2.616-2.618l0.972-0.874h0.001c0.693-0.602,1.592-0.974,2.579-0.974l11.125-0.002    c0.535,0,0.988,0.454,0.988,0.991v10.142c0,0.533-0.453,0.99-0.988,0.99H10.313c-0.494,0-0.898,0.404-0.898,0.898v1.168    c0,0.494,0.404,0.898,0.898,0.898h13.729c2.177,0,3.958-1.781,3.958-3.955V9.931C28,7.754,26.219,5.973,24.042,5.973z"
   opacity="0.15" />
		<path
   id="path15"
   d="M24.042,5.973H11.958l-0.002,0.004c-0.995-0.037-2.005,0.292-2.798,1.007L7.263,8.688l-2.541-2.54    l-1.36,4.991L2,16.129l4.991-1.361l4.99-1.361l-2.616-2.618l0.972-0.874h0.001c0.693-0.602,1.592-0.974,2.579-0.974l11.125-0.002    c0.535,0,0.988,0.454,0.988,0.991v10.142c0,0.533-0.453,0.99-0.988,0.99H10.313c-0.494,0-0.898,0.404-0.898,0.898v1.168    c0,0.494,0.404,0.898,0.898,0.898h13.729c2.177,0,3.958-1.781,3.958-3.955V9.931C28,7.754,26.219,5.973,24.042,5.973z"
   fill="#000000" />
		<rect
   id="rect17"
   height="30"
   width="30"
   fill="none"
   y="0" />
	</g>
</g>
</svg>