<?xml version="1.0" encoding="UTF-8" standalone="no"?>
<!-- Generator: Adobe Illustrator 15.0.0, SVG Export Plug-In . SVG Version: 6.00 Build 0)  -->

<svg
   xmlns:dc="http://purl.org/dc/elements/1.1/"
   xmlns:cc="http://creativecommons.org/ns#"
   xmlns:rdf="http://www.w3.org/1999/02/22-rdf-syntax-ns#"
   xmlns:svg="http://www.w3.org/2000/svg"
   xmlns="http://www.w3.org/2000/svg"
   xmlns:sodipodi="http://sodipodi.sourceforge.net/DTD/sodipodi-0.dtd"
   xmlns:inkscape="http://www.inkscape.org/namespaces/inkscape"
   version="1.1"
   x="0px"
   y="0px"
   width="30px"
   height="30px"
   viewBox="0 0 30 30"
   enable-background="new 0 0 30 30"
   xml:space="preserve"
   id="svg2"
   inkscape:version="0.48.2 r9819"
   sodipodi:docname="video.svg"><sodipodi:namedview
   pagecolor="#ffffff"
   bordercolor="#666666"
   borderopacity="1"
   objecttolerance="10"
   gridtolerance="10"
   guidetolerance="10"
   inkscape:pageopacity="0"
   inkscape:pageshadow="2"
   inkscape:window-width="640"
   inkscape:window-height="480"
   id="namedview15"
   showgrid="false"
   inkscape:zoom="7.8666667"
   inkscape:cx="15"
   inkscape:cy="15"
   inkscape:window-x="0"
   inkscape:window-y="0"
   inkscape:window-maximized="0"
   inkscape:current-layer="svg2" /><metadata
   id="metadata19"><rdf:RDF><cc:Work
       rdf:about=""><dc:format>image/svg+xml</dc:format><dc:type
         rdf:resource="http://purl.org/dc/dcmitype/StillImage" /><dc:title></dc:title></cc:Work></rdf:RDF></metadata><defs
   id="defs17" />
<g
   id="DO_NOT_EDIT_-_BOUNDING_BOX">
	<rect
   height="30"
   width="30"
   fill="none"
   id="BOUNDING_BOX" />
</g>
<g
   id="PLACE_YOUR_GRAPHIC_HERE">
	<path
   id="path7"
   d="M18.994,3.512C18.974,3.51,18.957,3.5,18.938,3.5h-7.875c-0.02,0-0.037,0.01-0.057,0.012   C3.613,3.63,1,6.394,1,14s2.613,10.37,10.006,10.488c0.02,0.002,0.037,0.012,0.057,0.012h7.875c0.02,0,0.036-0.01,0.057-0.012   C26.387,24.37,29,21.606,29,14S26.387,3.63,18.994,3.512z M20.992,14.334l-3.609,2.084c-0.417,0.241-1.1,0.635-1.516,0.875   l-3.609,2.084c-0.418,0.24-0.758,0.044-0.758-0.438V8.854c0-0.481,0.34-0.678,0.758-0.438l3.609,2.084   c0.416,0.241,1.099,0.634,1.516,0.875l3.609,2.084C21.409,13.699,21.409,14.094,20.992,14.334z"
   opacity="0.3" />
	<path
   id="path9"
   d="M11.063,26.5c-0.055,0-0.12-0.007-0.183-0.018C3.074,26.354,0,23.132,0,15   C0,6.889,3.059,3.662,10.904,3.513C10.959,3.505,11.015,3.5,11.063,3.5h7.875c0.055,0,0.118,0.006,0.18,0.017   C26.927,3.646,30,6.869,30,15c0,8.111-3.059,11.339-10.904,11.486c-0.055,0.009-0.11,0.014-0.158,0.014H11.063z"
   opacity="0.15" />
	<path
   id="path11"
   d="M18.994,4.512C18.974,4.51,18.957,4.5,18.938,4.5h-7.875c-0.02,0-0.037,0.01-0.057,0.012   C3.613,4.63,1,7.394,1,15s2.613,10.37,10.006,10.488c0.02,0.002,0.037,0.012,0.057,0.012h7.875c0.02,0,0.036-0.01,0.057-0.012   C26.387,25.37,29,22.606,29,15S26.387,4.63,18.994,4.512z M20.992,15.334l-3.609,2.084c-0.417,0.241-1.1,0.635-1.516,0.875   l-3.609,2.084c-0.418,0.24-0.758,0.044-0.758-0.438V9.854c0-0.481,0.34-0.678,0.758-0.438l3.609,2.084   c0.416,0.241,1.099,0.634,1.516,0.875l3.609,2.084C21.409,14.699,21.409,15.094,20.992,15.334z"
   opacity="0.15" />
	<path
   id="path13"
   d="M18.994,4.512C18.974,4.51,18.957,4.5,18.938,4.5h-7.875c-0.02,0-0.037,0.01-0.057,0.012   C3.613,4.63,1,7.394,1,15s2.613,10.37,10.006,10.488c0.02,0.002,0.037,0.012,0.057,0.012h7.875c0.02,0,0.036-0.01,0.057-0.012   C26.387,25.37,29,22.606,29,15S26.387,4.63,18.994,4.512z M20.992,15.334l-3.609,2.084c-0.417,0.241-1.1,0.635-1.516,0.875   l-3.609,2.084c-0.418,0.24-0.758,0.044-0.758-0.438V9.854c0-0.481,0.34-0.678,0.758-0.438l3.609,2.084   c0.416,0.241,1.099,0.634,1.516,0.875l3.609,2.084C21.409,14.699,21.409,15.094,20.992,15.334z"
   fill="#000000" />
</g>
</svg>