<?xml version="1.0" encoding="utf-8"?>
<!-- Generator: Adobe Illustrator 15.0.0, SVG Export Plug-In . SVG Version: 6.00 Build 0)  -->
<!DOCTYPE svg PUBLIC "-//W3C//DTD SVG 1.1//EN" "http://www.w3.org/Graphics/SVG/1.1/DTD/svg11.dtd">
<svg version="1.1" xmlns="http://www.w3.org/2000/svg" xmlns:xlink="http://www.w3.org/1999/xlink" x="0px" y="0px" width="30px"
	 height="30px" viewBox="0 0 30 30" enable-background="new 0 0 30 30" xml:space="preserve">
<g id="DO_NOT_EDIT_-_BOUNDING_BOX">
	<rect id="BOUNDING_BOX" fill="none" width="30" height="30"/>
</g>
<g id="PLACE_YOUR_GRAPHIC_HERE">
	<g>
		<path opacity="0.3" d="M25,1H5C4.447,1,4,1.447,4,2v24c0,0.553,0.447,1,1,1h20c0.553,0,1-0.447,1-1V2C26,1.447,25.553,1,25,1z
			 M7,4h6v7H7V4z M22,23H8c-0.553,0-1-0.447-1-1s0.447-1,1-1h14c0.553,0,1,0.447,1,1S22.553,23,22,23z M22,19H8
			c-0.553,0-1-0.447-1-1s0.447-1,1-1h14c0.553,0,1,0.447,1,1S22.553,19,22,19z M22,15H8c-0.553,0-1-0.447-1-1s0.447-1,1-1h14
			c0.553,0,1,0.447,1,1S22.553,15,22,15z M22,11h-6c-0.553,0-1-0.447-1-1s0.447-1,1-1h6c0.553,0,1,0.447,1,1S22.553,11,22,11z M22,7
			h-6c-0.553,0-1-0.447-1-1s0.447-1,1-1h6c0.553,0,1,0.447,1,1S22.553,7,22,7z"/>
		<rect fill="none" width="30" height="30"/>
		<path opacity="0.15" d="M5,29c-1.103,0-2-0.897-2-2V3c0-1.103,0.897-2,2-2h20c1.103,0,2,0.897,2,2v24c0,1.103-0.897,2-2,2H5z"/>
		<path opacity="0.15" d="M25,2H5C4.447,2,4,2.447,4,3v24c0,0.553,0.447,1,1,1h20c0.553,0,1-0.447,1-1V3C26,2.447,25.553,2,25,2z
			 M7,5h6v7H7V5z M22,24H8c-0.553,0-1-0.447-1-1s0.447-1,1-1h14c0.553,0,1,0.447,1,1S22.553,24,22,24z M22,20H8
			c-0.553,0-1-0.447-1-1s0.447-1,1-1h14c0.553,0,1,0.447,1,1S22.553,20,22,20z M22,16H8c-0.553,0-1-0.447-1-1s0.447-1,1-1h14
			c0.553,0,1,0.447,1,1S22.553,16,22,16z M22,12h-6c-0.553,0-1-0.447-1-1s0.447-1,1-1h6c0.553,0,1,0.447,1,1S22.553,12,22,12z M22,8
			h-6c-0.553,0-1-0.447-1-1s0.447-1,1-1h6c0.553,0,1,0.447,1,1S22.553,8,22,8z"/>
		<path fill="#FFFFFF" d="M25,2H5C4.447,2,4,2.447,4,3v24c0,0.553,0.447,1,1,1h20c0.553,0,1-0.447,1-1V3C26,2.447,25.553,2,25,2z
			 M7,5h6v7H7V5z M22,24H8c-0.553,0-1-0.447-1-1s0.447-1,1-1h14c0.553,0,1,0.447,1,1S22.553,24,22,24z M22,20H8
			c-0.553,0-1-0.447-1-1s0.447-1,1-1h14c0.553,0,1,0.447,1,1S22.553,20,22,20z M22,16H8c-0.553,0-1-0.447-1-1s0.447-1,1-1h14
			c0.553,0,1,0.447,1,1S22.553,16,22,16z M22,12h-6c-0.553,0-1-0.447-1-1s0.447-1,1-1h6c0.553,0,1,0.447,1,1S22.553,12,22,12z M22,8
			h-6c-0.553,0-1-0.447-1-1s0.447-1,1-1h6c0.553,0,1,0.447,1,1S22.553,8,22,8z"/>
	</g>
</g>
</svg>
