<?xml version="1.0" encoding="UTF-8" standalone="no"?>
<!-- Generator: Adobe Illustrator 15.0.0, SVG Export Plug-In . SVG Version: 6.00 Build 0)  -->

<svg
   xmlns:dc="http://purl.org/dc/elements/1.1/"
   xmlns:cc="http://creativecommons.org/ns#"
   xmlns:rdf="http://www.w3.org/1999/02/22-rdf-syntax-ns#"
   xmlns:svg="http://www.w3.org/2000/svg"
   xmlns="http://www.w3.org/2000/svg"
   xmlns:sodipodi="http://sodipodi.sourceforge.net/DTD/sodipodi-0.dtd"
   xmlns:inkscape="http://www.inkscape.org/namespaces/inkscape"
   version="1.1"
   x="0px"
   y="0px"
   width="30px"
   height="30px"
   viewBox="0 0 30 30"
   enable-background="new 0 0 30 30"
   xml:space="preserve"
   id="svg2"
   inkscape:version="0.48.2 r9819"
   sodipodi:docname="web_page.svg"><sodipodi:namedview
   pagecolor="#ffffff"
   bordercolor="#666666"
   borderopacity="1"
   objecttolerance="10"
   gridtolerance="10"
   guidetolerance="10"
   inkscape:pageopacity="0"
   inkscape:pageshadow="2"
   inkscape:window-width="640"
   inkscape:window-height="480"
   id="namedview19"
   showgrid="false"
   inkscape:zoom="7.8666667"
   inkscape:cx="15"
   inkscape:cy="15"
   inkscape:window-x="0"
   inkscape:window-y="0"
   inkscape:window-maximized="0"
   inkscape:current-layer="svg2" /><metadata
   id="metadata23"><rdf:RDF><cc:Work
       rdf:about=""><dc:format>image/svg+xml</dc:format><dc:type
         rdf:resource="http://purl.org/dc/dcmitype/StillImage" /><dc:title></dc:title></cc:Work></rdf:RDF></metadata><defs
   id="defs21" />
<g
   id="DO_NOT_EDIT_-_BOUNDING_BOX">
	<rect
   height="30"
   width="30"
   fill="none"
   id="BOUNDING_BOX" />
</g>
<g
   id="PLACE_YOUR_GRAPHIC_HERE">
	<g
   id="g7">
		<path
   id="path9"
   d="M25,1H5C4.447,1,4,1.447,4,2v24c0,0.553,0.447,1,1,1h20c0.553,0,1-0.447,1-1V2C26,1.447,25.553,1,25,1z     M7,4h6v7H7V4z M22,23H8c-0.553,0-1-0.447-1-1s0.447-1,1-1h14c0.553,0,1,0.447,1,1S22.553,23,22,23z M22,19H8    c-0.553,0-1-0.447-1-1s0.447-1,1-1h14c0.553,0,1,0.447,1,1S22.553,19,22,19z M22,15H8c-0.553,0-1-0.447-1-1s0.447-1,1-1h14    c0.553,0,1,0.447,1,1S22.553,15,22,15z M22,11h-6c-0.553,0-1-0.447-1-1s0.447-1,1-1h6c0.553,0,1,0.447,1,1S22.553,11,22,11z M22,7    h-6c-0.553,0-1-0.447-1-1s0.447-1,1-1h6c0.553,0,1,0.447,1,1S22.553,7,22,7z"
   opacity="0.3" />
		<rect
   id="rect11"
   height="30"
   width="30"
   fill="none" />
		<path
   id="path13"
   d="M5,29c-1.103,0-2-0.897-2-2V3c0-1.103,0.897-2,2-2h20c1.103,0,2,0.897,2,2v24c0,1.103-0.897,2-2,2H5z"
   opacity="0.15" />
		<path
   id="path15"
   d="M25,2H5C4.447,2,4,2.447,4,3v24c0,0.553,0.447,1,1,1h20c0.553,0,1-0.447,1-1V3C26,2.447,25.553,2,25,2z     M7,5h6v7H7V5z M22,24H8c-0.553,0-1-0.447-1-1s0.447-1,1-1h14c0.553,0,1,0.447,1,1S22.553,24,22,24z M22,20H8    c-0.553,0-1-0.447-1-1s0.447-1,1-1h14c0.553,0,1,0.447,1,1S22.553,20,22,20z M22,16H8c-0.553,0-1-0.447-1-1s0.447-1,1-1h14    c0.553,0,1,0.447,1,1S22.553,16,22,16z M22,12h-6c-0.553,0-1-0.447-1-1s0.447-1,1-1h6c0.553,0,1,0.447,1,1S22.553,12,22,12z M22,8    h-6c-0.553,0-1-0.447-1-1s0.447-1,1-1h6c0.553,0,1,0.447,1,1S22.553,8,22,8z"
   opacity="0.15" />
		<path
   id="path17"
   d="M25,2H5C4.447,2,4,2.447,4,3v24c0,0.553,0.447,1,1,1h20c0.553,0,1-0.447,1-1V3C26,2.447,25.553,2,25,2z     M7,5h6v7H7V5z M22,24H8c-0.553,0-1-0.447-1-1s0.447-1,1-1h14c0.553,0,1,0.447,1,1S22.553,24,22,24z M22,20H8    c-0.553,0-1-0.447-1-1s0.447-1,1-1h14c0.553,0,1,0.447,1,1S22.553,20,22,20z M22,16H8c-0.553,0-1-0.447-1-1s0.447-1,1-1h14    c0.553,0,1,0.447,1,1S22.553,16,22,16z M22,12h-6c-0.553,0-1-0.447-1-1s0.447-1,1-1h6c0.553,0,1,0.447,1,1S22.553,12,22,12z M22,8    h-6c-0.553,0-1-0.447-1-1s0.447-1,1-1h6c0.553,0,1,0.447,1,1S22.553,8,22,8z"
   fill="#000000" />
	</g>
</g>
</svg>