<?xml version="1.0" encoding="utf-8"?>
<!-- Generator: Adobe Illustrator 15.0.0, SVG Export Plug-In . SVG Version: 6.00 Build 0)  -->
<!DOCTYPE svg PUBLIC "-//W3C//DTD SVG 1.1//EN" "http://www.w3.org/Graphics/SVG/1.1/DTD/svg11.dtd">
<svg version="1.1" xmlns="http://www.w3.org/2000/svg" xmlns:xlink="http://www.w3.org/1999/xlink" x="0px" y="0px" width="30px"
	 height="30px" viewBox="0 0 30 30" enable-background="new 0 0 30 30" xml:space="preserve">
<g id="DO_NOT_EDIT_-_BOUNDING_BOX">
	<rect id="BOUNDING_BOX" fill="none" width="30" height="30"/>
</g>
<g id="PLACE_YOUR_GRAPHIC_HERE">
	<path opacity="0.3" d="M6,17.621V25c0,0.553,0.447,1,1,1h5.5v-6h5v6H23c0.553,0,1-0.447,1-1v-7.379l-9-9L6,17.621z M15,3L9,9V6H6v6
		l-4,4l1.75,1.75L15,6.5l11.25,11.25L28,16L15,3z"/>
	<path opacity="0.15" d="M17.5,28c-0.553,0-1-0.447-1-1v-5h-3v5c0,0.553-0.448,1-1,1H7c-1.103,0-2-0.897-2-2v-7.086l-0.543,0.543
		C4.262,19.652,4.006,19.75,3.75,19.75s-0.512-0.098-0.707-0.293l-1.75-1.75c-0.391-0.391-0.391-1.023,0-1.414L5,12.586V7
		c0-0.552,0.448-1,1-1h3c0.552,0,1,0.448,1,1v0.586l4.293-4.293C14.488,3.098,14.744,3,15,3s0.512,0.098,0.707,0.293l13,13
		c0.391,0.391,0.391,1.023,0,1.414l-1.75,1.75c-0.195,0.195-0.451,0.293-0.707,0.293s-0.512-0.098-0.707-0.293L25,18.914V26
		c0,1.103-0.897,2-2,2H17.5z"/>
	<path opacity="0.15" d="M6,18.621V26c0,0.553,0.447,1,1,1h5.5v-6h5v6H23c0.553,0,1-0.447,1-1v-7.379l-9-9L6,18.621z M15,4l-6,6V7H6
		v6l-4,4l1.75,1.75L15,7.5l11.25,11.25L28,17L15,4z"/>
	<path fill="#FFFFFF" d="M6,18.621V26c0,0.553,0.447,1,1,1h5.5v-6h5v6H23c0.553,0,1-0.447,1-1v-7.379l-9-9L6,18.621z M15,4l-6,6V7H6
		v6l-4,4l1.75,1.75L15,7.5l11.25,11.25L28,17L15,4z"/>
</g>
</svg>
