<?xml version="1.0" encoding="utf-8"?>
<!-- Generator: Adobe Illustrator 15.0.0, SVG Export Plug-In . SVG Version: 6.00 Build 0)  -->
<!DOCTYPE svg PUBLIC "-//W3C//DTD SVG 1.1//EN" "http://www.w3.org/Graphics/SVG/1.1/DTD/svg11.dtd">
<svg version="1.1" xmlns="http://www.w3.org/2000/svg" xmlns:xlink="http://www.w3.org/1999/xlink" x="0px" y="0px" width="30px"
	 height="30px" viewBox="0 0 30 30" enable-background="new 0 0 30 30" xml:space="preserve">
<g id="DO_NOT_EDIT_-_BOUNDING_BOX">
	<rect id="BOUNDING_BOX" fill="none" width="30" height="30"/>
</g>
<g id="PLACE_YOUR_GRAPHIC_HERE">
	<path opacity="0.3" d="M15,1c-4.418,0-8,3.677-8,8c0,6,6.4,18,8,18s8-12,8-18C23,4.677,19.418,1,15,1z M15,13c-2.205,0-4-1.795-4-4
		s1.795-4,4-4s4,1.795,4,4S17.205,13,15,13z"/>
	<path opacity="0.15" d="M15,29c-2.691,0-9-13.318-9-19c0-4.962,4.038-9,9-9c4.963,0,9,4.038,9,9C24,15.682,17.691,29,15,29z M15,7
		c-1.654,0-3,1.346-3,3s1.346,3,3,3s3-1.346,3-3S16.654,7,15,7z"/>
	<path opacity="0.15" d="M15,2c-4.418,0-8,3.677-8,8c0,6,6.4,18,8,18s8-12,8-18C23,5.677,19.418,2,15,2z M15,14
		c-2.205,0-4-1.795-4-4s1.795-4,4-4s4,1.795,4,4S17.205,14,15,14z"/>
	<path fill="#FFFFFF" d="M15,2c-4.418,0-8,3.677-8,8c0,6,6.4,18,8,18s8-12,8-18C23,5.677,19.418,2,15,2z M15,14
		c-2.205,0-4-1.795-4-4s1.795-4,4-4s4,1.795,4,4S17.205,14,15,14z"/>
</g>
</svg>
