<?xml version="1.0" encoding="UTF-8" standalone="no"?>
<!-- Generator: Adobe Illustrator 15.0.0, SVG Export Plug-In . SVG Version: 6.00 Build 0)  -->

<svg
   xmlns:dc="http://purl.org/dc/elements/1.1/"
   xmlns:cc="http://creativecommons.org/ns#"
   xmlns:rdf="http://www.w3.org/1999/02/22-rdf-syntax-ns#"
   xmlns:svg="http://www.w3.org/2000/svg"
   xmlns="http://www.w3.org/2000/svg"
   xmlns:sodipodi="http://sodipodi.sourceforge.net/DTD/sodipodi-0.dtd"
   xmlns:inkscape="http://www.inkscape.org/namespaces/inkscape"
   version="1.1"
   x="0px"
   y="0px"
   width="30px"
   height="30px"
   viewBox="0 0 30 30"
   enable-background="new 0 0 30 30"
   xml:space="preserve"
   id="svg2"
   inkscape:version="0.48.2 r9819"
   sodipodi:docname="lock.svg"><sodipodi:namedview
   pagecolor="#ffffff"
   bordercolor="#666666"
   borderopacity="1"
   objecttolerance="10"
   gridtolerance="10"
   guidetolerance="10"
   inkscape:pageopacity="0"
   inkscape:pageshadow="2"
   inkscape:window-width="640"
   inkscape:window-height="480"
   id="namedview19"
   showgrid="false"
   inkscape:zoom="7.8666667"
   inkscape:cx="15"
   inkscape:cy="15"
   inkscape:window-x="0"
   inkscape:window-y="0"
   inkscape:window-maximized="0"
   inkscape:current-layer="svg2" /><metadata
   id="metadata23"><rdf:RDF><cc:Work
       rdf:about=""><dc:format>image/svg+xml</dc:format><dc:type
         rdf:resource="http://purl.org/dc/dcmitype/StillImage" /><dc:title></dc:title></cc:Work></rdf:RDF></metadata><defs
   id="defs21" />
<g
   id="DO_NOT_EDIT_-_BOUNDING_BOX">
	<rect
   height="30"
   width="30"
   fill="none"
   id="BOUNDING_BOX" />
</g>
<g
   id="PLACE_YOUR_GRAPHIC_HERE">
	<g
   id="g7">
		<path
   id="path9"
   d="M24,10h-1V7c0-3.3-2.701-6-6-6h-4C9.699,1,7,3.7,7,7v3H6c-1.1,0-2,0.9-2,2v13c0,1.1,0.9,2,2,2h18    c1.1,0,2-0.9,2-2V12C26,10.9,25.1,10,24,10z M16,19.289V23h-2v-3.711c-0.881-0.387-1.5-1.266-1.5-2.289c0-1.381,1.121-2.5,2.5-2.5    s2.5,1.119,2.5,2.5C17.5,18.023,16.881,18.902,16,19.289z M20,10H10V7c0-1.654,1.346-3,3-3h4c1.654,0,3,1.346,3,3V10z"
   opacity="0.3" />
		<path
   id="path11"
   d="M6,29c-1.654,0-3-1.346-3-3V13c0-1.654,1.346-3,3-3V8c0-3.86,3.14-7,7-7h4c3.859,0,7,3.14,7,7v2    c1.654,0,3,1.346,3,3v13c0,1.654-1.346,3-3,3H6z M19,10V8c0-1.103-0.897-2-2-2h-4c-1.103,0-2,0.897-2,2v2H19z"
   opacity="0.15" />
		<path
   id="path13"
   d="M24,11h-1V8c0-3.3-2.701-6-6-6h-4C9.699,2,7,4.7,7,8v3H6c-1.1,0-2,0.9-2,2v13c0,1.1,0.9,2,2,2h18    c1.1,0,2-0.9,2-2V13C26,11.9,25.1,11,24,11z M16,20.289V24h-2v-3.711c-0.881-0.387-1.5-1.266-1.5-2.289c0-1.381,1.121-2.5,2.5-2.5    s2.5,1.119,2.5,2.5C17.5,19.023,16.881,19.902,16,20.289z M20,11H10V8c0-1.654,1.346-3,3-3h4c1.654,0,3,1.346,3,3V11z"
   opacity="0.15" />
		<path
   id="path15"
   d="M24,11h-1V8c0-3.3-2.701-6-6-6h-4C9.699,2,7,4.7,7,8v3H6c-1.1,0-2,0.9-2,2v13c0,1.1,0.9,2,2,2h18    c1.1,0,2-0.9,2-2V13C26,11.9,25.1,11,24,11z M16,20.289V24h-2v-3.711c-0.881-0.387-1.5-1.266-1.5-2.289c0-1.381,1.121-2.5,2.5-2.5    s2.5,1.119,2.5,2.5C17.5,19.023,16.881,19.902,16,20.289z M20,11H10V8c0-1.654,1.346-3,3-3h4c1.654,0,3,1.346,3,3V11z"
   fill="#000000" />
		<rect
   id="rect17"
   height="30"
   width="30"
   fill="none" />
	</g>
</g>
</svg>