<?xml version="1.0" encoding="utf-8"?>
<!-- Generator: Adobe Illustrator 15.0.0, SVG Export Plug-In . SVG Version: 6.00 Build 0)  -->
<!DOCTYPE svg PUBLIC "-//W3C//DTD SVG 1.1//EN" "http://www.w3.org/Graphics/SVG/1.1/DTD/svg11.dtd">
<svg version="1.1" xmlns="http://www.w3.org/2000/svg" xmlns:xlink="http://www.w3.org/1999/xlink" x="0px" y="0px" width="30px"
	 height="30px" viewBox="0 0 30 30" enable-background="new 0 0 30 30" xml:space="preserve">
<g id="DO_NOT_EDIT_-_BOUNDING_BOX">
	<rect id="BOUNDING_BOX" fill="none" width="30" height="30"/>
</g>
<g id="PLACE_YOUR_GRAPHIC_HERE">
	<path opacity="0.3" d="M18.994,3.512C18.974,3.51,18.957,3.5,18.938,3.5h-7.875c-0.02,0-0.037,0.01-0.057,0.012
		C3.613,3.63,1,6.394,1,14s2.613,10.37,10.006,10.488c0.02,0.002,0.037,0.012,0.057,0.012h7.875c0.02,0,0.036-0.01,0.057-0.012
		C26.387,24.37,29,21.606,29,14S26.387,3.63,18.994,3.512z M20.992,14.334l-3.609,2.084c-0.417,0.241-1.1,0.635-1.516,0.875
		l-3.609,2.084c-0.418,0.24-0.758,0.044-0.758-0.438V8.854c0-0.481,0.34-0.678,0.758-0.438l3.609,2.084
		c0.416,0.241,1.099,0.634,1.516,0.875l3.609,2.084C21.409,13.699,21.409,14.094,20.992,14.334z"/>
	<path opacity="0.15" d="M11.063,26.5c-0.055,0-0.12-0.007-0.183-0.018C3.074,26.354,0,23.132,0,15
		C0,6.889,3.059,3.662,10.904,3.513C10.959,3.505,11.015,3.5,11.063,3.5h7.875c0.055,0,0.118,0.006,0.18,0.017
		C26.927,3.646,30,6.869,30,15c0,8.111-3.059,11.339-10.904,11.486c-0.055,0.009-0.11,0.014-0.158,0.014H11.063z"/>
	<path opacity="0.15" d="M18.994,4.512C18.974,4.51,18.957,4.5,18.938,4.5h-7.875c-0.02,0-0.037,0.01-0.057,0.012
		C3.613,4.63,1,7.394,1,15s2.613,10.37,10.006,10.488c0.02,0.002,0.037,0.012,0.057,0.012h7.875c0.02,0,0.036-0.01,0.057-0.012
		C26.387,25.37,29,22.606,29,15S26.387,4.63,18.994,4.512z M20.992,15.334l-3.609,2.084c-0.417,0.241-1.1,0.635-1.516,0.875
		l-3.609,2.084c-0.418,0.24-0.758,0.044-0.758-0.438V9.854c0-0.481,0.34-0.678,0.758-0.438l3.609,2.084
		c0.416,0.241,1.099,0.634,1.516,0.875l3.609,2.084C21.409,14.699,21.409,15.094,20.992,15.334z"/>
	<path fill="#FFFFFF" d="M18.994,4.512C18.974,4.51,18.957,4.5,18.938,4.5h-7.875c-0.02,0-0.037,0.01-0.057,0.012
		C3.613,4.63,1,7.394,1,15s2.613,10.37,10.006,10.488c0.02,0.002,0.037,0.012,0.057,0.012h7.875c0.02,0,0.036-0.01,0.057-0.012
		C26.387,25.37,29,22.606,29,15S26.387,4.63,18.994,4.512z M20.992,15.334l-3.609,2.084c-0.417,0.241-1.1,0.635-1.516,0.875
		l-3.609,2.084c-0.418,0.24-0.758,0.044-0.758-0.438V9.854c0-0.481,0.34-0.678,0.758-0.438l3.609,2.084
		c0.416,0.241,1.099,0.634,1.516,0.875l3.609,2.084C21.409,14.699,21.409,15.094,20.992,15.334z"/>
</g>
</svg>
